<svg xmlns="http://www.w3.org/2000/svg" width="520" height="480" viewBox="0 0 520 480">
<g>
<path d="M 291.69 417.41 C255.64,422.64 223.28,418.17 189.19,403.25 C164.93,392.63 138.94,372.54 121.24,350.75 C98.32,322.52 84.28,285.85 82.67,250.00 C82.37,243.30 82.48,240.17 82.94,242.50 L 83.72 246.50 L 83.86 242.87 C84.04,238.25 85.94,236.48 88.58,238.49 C89.64,239.28 91.29,239.95 92.25,239.97 C93.99,240.00 94.40,241.36 94.02,245.89 C93.91,247.20 94.26,248.55 94.79,248.89 C95.33,249.22 96.01,251.30 96.30,253.50 C98.49,270.07 106.75,295.71 115.15,312.00 C123.36,327.94 132.52,340.43 146.00,354.06 C163.09,371.33 181.87,383.54 206.84,393.61 C239.03,406.59 286.18,407.56 317.93,395.89 C325.64,393.06 345.63,382.73 354.22,377.13 C362.76,371.58 364.76,370.39 363.79,371.46 C362.49,372.90 366.83,379.67 370.05,381.23 L 373.23 382.77 L 367.86 386.78 C348.67,401.14 317.50,413.67 291.69,417.41 ZM 275.71 375.12 C270.87,377.25 265.69,379.00 264.21,379.00 C257.85,378.98 231.07,365.01 215.72,353.70 C180.25,327.56 155.59,292.02 145.16,251.97 C141.37,237.43 140.51,231.42 142.10,230.44 C142.79,230.01 143.85,230.44 144.56,231.41 C145.25,232.36 146.10,233.05 146.44,232.96 C148.97,232.24 150.95,234.54 153.90,241.60 C160.27,256.88 166.10,270.52 166.89,272.00 C174.86,286.94 187.39,304.38 196.14,312.69 C199.01,315.42 207.09,318.57 208.25,317.41 C208.45,317.22 212.18,320.95 216.55,325.71 C224.19,334.04 234.97,342.12 245.66,347.53 C252.61,351.05 250.66,348.54 243.25,344.42 C233.68,339.11 222.84,330.76 217.02,324.23 C212.82,319.52 204.00,304.22 204.00,301.65 C204.00,299.65 206.38,302.76 209.03,308.22 C213.17,316.77 219.03,324.15 226.79,330.60 C234.47,336.97 248.78,345.69 258.92,350.17 L 265.86 353.24 L 279.68 345.59 C293.98,337.67 306.03,328.18 313.67,318.81 C315.78,316.24 318.09,314.10 318.81,314.06 C319.53,314.03 319.90,313.64 319.63,313.21 C319.36,312.77 320.02,312.35 321.09,312.27 C322.16,312.19 322.78,312.54 322.46,313.06 C322.14,313.58 322.33,314.00 322.88,314.00 C323.43,314.00 324.16,313.55 324.50,313.00 C324.84,312.45 325.57,312.00 326.12,312.00 C326.67,312.00 326.78,312.54 326.37,313.21 C325.00,315.43 325.14,318.84 326.63,319.41 C327.58,319.77 327.85,319.56 327.39,318.82 C326.91,318.05 327.22,317.87 328.30,318.29 C329.20,318.63 330.20,318.49 330.52,317.97 C331.90,315.73 342.43,320.44 341.49,322.88 C341.05,324.03 341.23,324.05 342.48,323.02 C345.36,320.63 343.99,323.62 340.42,327.51 C338.46,329.66 336.42,332.22 335.89,333.20 C334.52,335.77 318.84,349.27 309.97,355.52 C299.62,362.82 286.27,370.45 275.71,375.12 ZM 268.69 248.49 C266.94,250.90 264.96,252.90 264.30,252.94 C263.64,252.97 261.65,250.86 259.88,248.25 C258.11,245.64 254.83,241.46 252.58,238.96 C243.21,228.52 242.08,227.07 242.95,226.53 C243.45,226.22 244.15,226.43 244.49,226.99 C244.92,227.67 245.74,227.68 247.00,227.00 C248.51,226.19 249.74,226.72 253.36,229.75 C255.83,231.81 259.50,234.62 261.51,236.00 C263.53,237.38 266.69,239.76 268.53,241.30 L 271.89 244.11 ZM 238.60 220.77 C237.55,222.00 236.65,222.98 236.60,222.96 C235.03,222.39 219.59,206.85 219.42,205.68 C219.10,203.50 220.86,202.45 222.34,203.95 C223.22,204.84 223.03,204.97 221.50,204.48 C219.53,203.85 219.53,203.86 221.44,205.42 C222.54,206.32 222.84,207.00 222.13,207.00 C221.44,207.00 221.16,207.46 221.51,208.02 C221.86,208.58 222.54,208.78 223.03,208.48 C223.52,208.18 224.84,208.84 225.96,209.96 C227.08,211.08 228.23,212.00 228.50,212.00 L 230.12 212.00 C230.85,212.00 230.77,212.59 229.87,213.69 C228.68,215.15 228.71,215.29 230.14,214.76 C231.03,214.43 232.66,214.78 233.75,215.54 C234.84,216.30 236.09,216.61 236.53,216.21 C236.96,215.82 236.95,216.14 236.50,216.92 C235.88,217.98 236.10,218.18 237.36,217.69 C238.83,217.13 238.89,217.34 237.86,219.27 C236.74,221.37 236.78,221.41 238.59,220.02 C240.47,218.56 240.47,218.57 238.60,220.77 ZM 246.60 225.75 C245.73,227.27 245.31,227.31 244.49,225.98 C244.14,225.42 243.45,225.22 242.95,225.53 C241.83,226.23 238.00,224.27 238.00,223.00 C238.00,222.49 238.95,221.56 240.12,220.94 C241.29,220.31 242.05,220.18 241.81,220.65 C241.22,221.79 245.67,225.97 246.60,225.15 C246.99,224.79 247.00,225.06 246.60,225.75 ZM 224.95 211.44 C227.48,214.14 229.00,214.70 229.00,212.94 C229.00,212.36 228.55,212.16 227.99,212.50 C227.44,212.85 226.73,212.46 226.42,211.64 C226.10,210.82 225.10,209.87 224.20,209.52 C223.09,209.10 223.33,209.73 224.95,211.44 Z" fill="rgb(44,84,127)"/>
<path d="M 102.30 279.35 C99.45,270.02 97.27,260.86 96.30,253.50 C96.01,251.30 95.33,249.22 94.79,248.89 C94.26,248.55 93.91,247.20 94.02,245.89 C94.40,241.36 93.99,240.00 92.25,239.97 C91.29,239.95 89.64,239.28 88.58,238.49 C85.94,236.48 84.04,238.25 83.86,242.87 L 83.72 246.50 L 82.94 242.50 C82.48,240.17 82.37,243.30 82.67,250.00 C83.17,261.13 84.87,272.33 87.66,283.34 C85.24,274.25 83.31,264.66 81.84,254.50 C79.87,240.87 82.40,204.57 85.89,196.50 C86.36,195.40 87.77,190.68 89.02,186.00 C90.94,178.81 97.08,162.67 100.02,157.10 C104.22,149.13 116.23,129.69 117.99,128.00 C118.28,127.72 119.85,125.70 121.48,123.50 C131.51,110.00 153.03,91.04 171.29,79.63 C181.75,73.09 187.15,70.52 205.00,63.57 C217.89,58.55 219.30,58.39 222.46,61.55 C224.03,63.12 224.89,64.85 224.55,65.74 C224.23,66.57 224.46,67.84 225.05,68.57 C225.91,69.59 225.21,70.13 221.82,71.05 C210.08,74.25 204.32,76.33 202.46,78.06 C201.33,79.11 198.86,80.50 196.96,81.16 C195.06,81.83 191.99,83.25 190.15,84.34 C186.83,86.30 186.81,86.34 187.50,91.91 C187.88,94.98 188.63,98.03 189.17,98.69 C189.86,99.53 189.18,100.37 186.82,101.57 C179.34,105.38 164.74,116.43 155.18,125.53 C149.58,130.85 145.22,135.55 145.48,135.97 C145.75,136.40 143.95,136.52 141.48,136.25 C139.02,135.97 137.00,136.08 137.00,136.50 C137.00,138.00 148.70,157.50 158.00,171.49 C169.08,188.17 172.06,191.81 189.54,209.96 C203.17,224.12 215.44,237.69 223.02,246.99 C230.12,255.69 231.92,257.77 242.12,268.95 C247.41,274.75 252.76,280.40 254.01,281.50 L 256.29 283.50 L 255.11 281.25 C254.46,280.01 253.47,279.00 252.91,279.00 C252.34,279.00 252.16,278.55 252.50,278.00 C252.84,277.45 252.71,277.00 252.22,277.00 C251.73,277.00 250.82,275.99 250.21,274.75 C249.61,273.51 248.16,271.08 247.01,269.34 C245.47,267.01 245.23,265.98 246.11,265.43 C246.87,264.96 247.05,265.12 246.60,265.85 C246.20,266.48 246.32,267.00 246.85,267.00 C247.38,267.00 249.54,269.33 251.66,272.17 C253.77,275.01 257.19,279.62 259.26,282.42 C261.33,285.21 263.46,287.45 264.01,287.40 C264.55,287.35 265.35,287.23 265.77,287.15 C266.19,287.07 269.89,282.48 273.98,276.96 C280.68,267.92 281.51,267.14 282.25,269.14 C283.03,271.27 283.28,271.15 288.12,266.43 C290.90,263.72 296.15,257.90 299.80,253.50 C313.98,236.39 328.66,220.37 342.12,207.31 L 348.50 201.11 L 356.89 202.58 C366.39,204.25 367.11,204.54 366.40,206.40 C365.96,207.55 359.50,212.34 354.12,215.50 C351.27,217.17 341.78,224.16 336.75,228.29 C331.54,232.56 330.96,234.71 333.87,238.85 C338.53,245.47 344.24,260.56 345.57,269.81 C346.56,276.69 347.41,277.84 349.31,274.90 C351.87,270.96 357.65,252.19 359.45,242.00 C363.52,218.88 362.96,219.99 375.08,211.44 C379.68,208.20 384.83,203.49 387.20,200.36 C392.88,192.83 393.68,194.08 392.18,208.24 C390.65,222.75 386.96,240.71 382.45,255.65 C373.46,285.42 356.89,312.49 334.86,334.51 C335.38,333.95 335.73,333.50 335.89,333.20 C336.42,332.22 338.46,329.66 340.42,327.51 C343.99,323.62 345.36,320.63 342.48,323.02 C341.23,324.05 341.05,324.03 341.49,322.88 C342.43,320.44 331.90,315.73 330.52,317.97 C330.20,318.49 329.20,318.63 328.30,318.29 C327.22,317.87 326.91,318.05 327.39,318.82 C327.85,319.56 327.58,319.77 326.63,319.41 C325.14,318.84 325.00,315.43 326.37,313.21 C326.78,312.54 326.67,312.00 326.12,312.00 C325.57,312.00 324.84,312.45 324.50,313.00 C324.16,313.55 323.43,314.00 322.88,314.00 C322.33,314.00 322.14,313.58 322.46,313.06 C322.78,312.54 322.16,312.19 321.09,312.27 C320.02,312.35 319.36,312.77 319.63,313.21 C319.90,313.64 319.53,314.03 318.81,314.06 C318.09,314.10 315.78,316.24 313.67,318.81 C311.02,322.06 307.84,325.32 304.22,328.53 C311.15,322.11 316.44,315.82 318.20,311.75 C319.32,309.14 320.64,307.00 321.12,307.00 C321.61,307.00 321.91,306.66 321.80,306.25 C321.68,305.84 322.23,303.02 323.00,300.00 C325.81,289.04 323.76,271.79 318.09,258.66 L 315.99 253.82 L 309.39 263.66 C303.34,272.67 290.68,289.75 282.00,300.61 C280.08,303.02 275.58,308.80 272.00,313.45 C268.42,318.10 265.03,321.92 264.45,321.95 C262.95,322.02 258.51,317.02 249.85,305.50 C245.72,300.00 238.75,290.77 234.36,285.00 C229.97,279.23 223.71,270.67 220.46,266.00 C219.94,265.26 219.45,264.56 219.00,263.90 C214.64,257.62 212.83,255.01 211.60,255.26 C210.59,255.47 209.97,257.60 208.67,261.22 C204.94,271.59 204.05,276.35 204.04,286.00 C204.02,292.88 205.18,299.32 207.57,305.40 C205.57,301.77 204.00,300.03 204.00,301.65 C204.00,304.22 212.82,319.52 217.02,324.23 C222.84,330.76 233.68,339.11 243.25,344.42 C250.66,348.54 252.61,351.05 245.66,347.53 C234.97,342.12 224.19,334.04 216.55,325.71 C212.18,320.95 208.45,317.22 208.25,317.41 C207.09,318.57 199.01,315.42 196.14,312.69 C187.39,304.38 174.86,286.94 166.89,272.00 C166.10,270.52 160.27,256.88 153.90,241.60 C150.95,234.54 148.97,232.24 146.44,232.96 C146.10,233.05 145.25,232.36 144.56,231.41 C143.85,230.44 142.79,230.01 142.10,230.44 C140.51,231.42 141.37,237.43 145.16,251.97 C146.96,258.88 149.18,265.65 151.81,272.26 C149.60,266.94 147.78,261.87 146.56,257.50 C145.64,254.20 144.28,250.15 143.54,248.50 C140.65,242.08 135.05,209.58 135.02,199.01 L 135.00 193.53 L 141.12 200.31 C144.49,204.05 150.82,209.82 155.18,213.14 C159.82,216.67 163.71,220.50 164.54,222.34 C165.32,224.08 166.87,230.76 167.98,237.19 C171.06,255.05 178.51,276.66 181.27,275.75 C181.95,275.52 182.78,272.90 183.11,269.92 C183.97,262.33 187.17,252.61 191.93,243.13 C194.17,238.68 196.00,234.38 196.00,233.57 C196.00,231.75 189.38,226.51 172.67,215.07 C165.61,210.25 157.16,203.72 153.90,200.56 C142.80,189.85 135.66,176.69 134.07,164.02 C133.59,160.24 132.89,156.62 132.50,155.99 C130.69,153.08 119.25,176.04 113.61,193.90 C101.41,232.51 104.34,271.16 122.43,310.62 C125.65,317.64 125.77,318.17 123.53,315.50 C120.01,311.31 111.84,297.04 106.57,285.89 C104.13,280.72 102.11,277.03 102.07,277.67 C102.05,278.02 102.13,278.59 102.30,279.35 ZM 260.05 248.49 C259.73,248.06 259.41,247.60 259.09,247.13 C256.90,243.90 248.23,234.79 239.84,226.88 C207.13,196.06 199.97,187.97 194.57,175.74 C188.77,162.61 188.50,148.29 193.84,136.62 C195.50,133.01 196.23,131.09 197.32,130.86 C198.41,130.63 199.87,132.09 202.99,135.21 C203.36,135.58 203.76,135.98 204.18,136.40 C208.06,140.26 208.32,140.90 208.73,147.31 C209.27,155.88 211.13,162.40 213.13,162.79 C214.42,163.03 214.27,161.87 212.22,155.79 C210.19,149.75 209.87,147.31 210.35,141.51 C210.66,137.67 211.37,134.38 211.91,134.20 C212.45,134.02 212.69,133.34 212.45,132.69 C211.70,130.66 217.86,121.13 220.94,119.53 C223.72,118.09 224.03,118.15 227.18,120.75 C231.64,124.43 233.03,126.26 232.50,127.75 C232.26,128.44 232.43,129.00 232.87,129.00 C233.98,129.00 236.10,133.83 235.21,134.35 C234.82,134.58 232.66,135.07 230.42,135.44 C224.72,136.39 220.53,139.20 217.37,144.21 C215.13,147.75 214.68,149.58 214.76,154.72 C214.86,161.83 217.62,167.86 225.92,179.11 C231.52,186.72 262.66,215.97 265.18,215.99 C266.10,215.99 267.67,214.98 268.68,213.74 C269.68,212.49 275.37,207.09 281.32,201.74 C289.56,194.33 292.67,192.11 294.32,192.44 L 294.74 192.53 C299.86,193.57 302.05,194.01 303.70,193.27 C304.98,192.69 305.95,191.40 307.70,189.12 C309.79,186.39 312.77,182.32 314.31,180.08 C317.07,176.09 317.26,176.00 323.01,176.00 C326.24,176.00 329.17,175.53 329.53,174.95 C329.89,174.37 330.70,174.07 331.34,174.28 C331.98,174.50 333.06,173.96 333.75,173.09 C336.48,169.61 331.73,179.40 327.59,185.78 C322.60,193.48 316.16,200.25 293.00,222.16 C283.94,230.73 274.47,240.68 271.19,245.06 L 271.89 244.11 L 268.53 241.30 C266.69,239.76 263.53,237.38 261.51,236.00 C259.50,234.62 255.83,231.81 253.36,229.75 C249.74,226.72 248.51,226.19 247.00,227.00 C245.74,227.68 244.92,227.67 244.49,226.99 C244.15,226.43 243.45,226.22 242.95,226.53 C242.08,227.07 243.21,228.52 252.58,238.96 C254.83,241.46 258.11,245.64 259.88,248.25 C259.94,248.33 259.99,248.41 260.05,248.49 ZM 368.08 386.61 L 373.23 382.77 L 370.05 381.23 C366.83,379.67 362.49,372.90 363.79,371.46 C364.76,370.39 362.76,371.58 354.22,377.13 C347.20,381.70 332.56,389.44 323.24,393.66 C333.02,389.21 348.86,380.77 354.73,376.70 C371.88,364.81 386.86,351.36 395.03,340.50 C412.12,317.78 422.48,295.22 428.57,267.45 C432.82,248.05 433.28,234.52 430.62,208.00 L 430.06 202.50 L 431.47 208.00 C432.79,213.16 432.86,213.26 432.69,209.50 C432.53,206.15 432.83,205.45 434.57,205.20 C435.70,205.04 437.95,205.45 439.57,206.12 C441.18,206.78 442.81,207.26 443.19,207.18 C443.56,207.11 444.63,210.46 445.56,214.63 C446.94,220.85 447.16,225.82 446.77,242.35 C446.24,264.38 444.13,276.84 437.84,294.92 C433.65,306.97 424.36,325.97 417.75,336.00 C404.68,355.83 387.56,373.07 368.08,386.61 ZM 315.58 160.66 C315.22,161.85 314.33,163.31 313.61,163.91 C312.54,164.79 312.44,164.10 313.06,160.22 C315.07,147.48 308.21,136.78 297.09,135.29 C291.29,134.51 293.09,133.00 299.81,133.02 C307.48,133.04 312.59,135.97 315.77,142.15 C318.92,148.26 319.76,154.48 317.75,156.77 C316.92,157.72 315.94,159.47 315.58,160.66 ZM 238.60 220.77 C240.47,218.57 240.47,218.56 238.59,220.02 C236.78,221.41 236.74,221.37 237.86,219.27 C238.89,217.34 238.83,217.13 237.36,217.69 C236.10,218.18 235.88,217.98 236.50,216.92 C236.95,216.14 236.96,215.82 236.53,216.21 C236.09,216.61 234.84,216.30 233.75,215.54 C232.66,214.78 231.03,214.43 230.14,214.76 C228.71,215.29 228.68,215.15 229.87,213.69 C230.77,212.59 230.85,212.00 230.12,212.00 L 228.50 212.00 C228.23,212.00 227.08,211.08 225.96,209.96 C224.84,208.84 223.52,208.18 223.03,208.48 C222.54,208.78 221.86,208.58 221.51,208.02 C221.16,207.46 221.44,207.00 222.13,207.00 C222.84,207.00 222.54,206.32 221.44,205.42 C219.53,203.86 219.53,203.85 221.50,204.48 C223.03,204.97 223.22,204.84 222.34,203.95 C220.86,202.45 219.10,203.50 219.42,205.68 C219.59,206.85 235.03,222.39 236.60,222.96 C236.65,222.98 237.55,222.00 238.60,220.77 ZM 246.60 225.75 C247.00,225.06 246.99,224.79 246.60,225.15 C245.67,225.97 241.22,221.79 241.81,220.65 C242.05,220.18 241.29,220.31 240.12,220.94 C238.95,221.56 238.00,222.49 238.00,223.00 C238.00,224.27 241.83,226.23 242.95,225.53 C243.45,225.22 244.14,225.42 244.49,225.98 C245.31,227.31 245.73,227.27 246.60,225.75 ZM 224.95 211.44 C223.33,209.73 223.09,209.10 224.20,209.52 C225.10,209.87 226.10,210.82 226.42,211.64 C226.73,212.46 227.44,212.85 227.99,212.50 C228.55,212.16 229.00,212.36 229.00,212.94 C229.00,214.70 227.48,214.14 224.95,211.44 ZM 216.10 353.98 C197.53,340.58 181.77,324.29 169.23,305.45 C168.18,303.88 167.13,302.23 166.09,300.51 C178.66,320.71 195.42,338.74 215.72,353.70 C215.85,353.80 215.97,353.89 216.10,353.98 ZM 275.71 375.12 C286.27,370.45 299.62,362.82 309.97,355.52 C315.53,351.60 323.78,344.83 329.49,339.69 C313.77,354.25 295.54,366.35 275.50,375.21 C272.33,376.61 269.96,377.61 267.83,378.14 C270.07,377.43 272.94,376.34 275.71,375.12 ZM 341.62 402.03 C325.82,409.60 309.11,414.85 292.20,417.34 C308.03,414.98 325.83,409.34 341.62,402.03 ZM 254.00 347.71 C256.06,348.75 258.03,349.72 259.74,350.53 L 258.92 350.17 C253.86,347.93 247.75,344.64 241.95,341.11 C245.68,343.34 249.69,345.54 254.00,347.71 ZM 220.24 324.46 C224.18,328.51 228.87,332.41 234.32,336.19 C231.47,334.24 228.88,332.33 226.79,330.60 C224.44,328.64 222.25,326.60 220.24,324.46 ZM 100.47 318.16 C106.19,329.80 113.16,340.80 121.24,350.75 C113.09,340.70 106.19,329.91 100.47,318.16 ZM 239.01 368.27 C232.69,364.89 226.62,361.22 220.81,357.28 C226.39,361.03 232.81,364.88 239.01,368.27 ZM 265.30 352.99 C265.33,353.00 265.35,353.00 265.36,353.00 C265.82,353.00 267.21,352.40 269.18,351.40 L 265.86 353.24 ZM 280.12 345.34 C283.26,343.51 286.50,341.55 289.41,339.73 C286.45,341.67 283.34,343.54 280.12,345.34 ZM 113.65 308.99 C111.93,305.42 110.23,301.51 108.61,297.41 C110.26,301.49 112.02,305.58 113.65,308.99 ZM 247.30 418.76 C227.81,416.95 208.81,411.83 189.19,403.25 C208.79,411.82 227.82,416.95 247.30,418.76 ZM 264.37 252.93 C264.34,252.94 264.31,252.94 264.29,252.94 C264.22,252.95 264.13,252.92 264.02,252.87 C264.13,252.92 264.22,252.94 264.30,252.94 C264.32,252.94 264.35,252.93 264.37,252.93 Z" fill="rgb(99,154,151)"/>
<path d="M 445.98 216.68 C445.86,216.00 445.71,215.32 445.56,214.63 C444.63,210.46 443.56,207.11 443.19,207.18 C442.81,207.26 441.18,206.78 439.57,206.12 C437.95,205.45 435.70,205.04 434.57,205.20 C432.83,205.45 432.53,206.15 432.69,209.50 C432.86,213.26 432.79,213.16 431.47,208.00 L 430.06 202.50 L 430.62 208.00 C433.28,234.52 432.82,248.05 428.57,267.45 C427.31,273.18 425.87,278.69 424.23,284.03 C424.65,282.48 424.81,281.47 424.61,281.28 C424.38,281.04 423.87,281.90 423.48,283.17 C421.65,289.26 412.70,306.16 408.36,311.72 C405.69,315.14 402.72,318.97 401.76,320.22 C400.21,322.25 400.09,322.28 400.60,320.50 C401.43,317.63 403.18,313.88 405.04,311.00 C405.92,309.62 407.46,306.25 408.46,303.50 C409.46,300.75 410.60,298.05 410.99,297.50 C413.69,293.67 419.80,267.76 421.01,254.97 C423.11,232.65 418.67,204.79 409.32,181.65 C403.22,166.57 396.85,154.65 395.66,156.07 C395.47,156.31 394.77,159.88 394.11,164.00 C392.27,175.64 385.86,187.89 376.81,197.11 C372.79,201.20 368.15,205.57 366.50,206.81 C365.90,207.26 365.33,207.69 364.78,208.10 C365.68,207.33 366.28,206.72 366.40,206.40 C367.11,204.54 366.39,204.25 356.89,202.58 L 348.50 201.11 L 342.12 207.31 C328.66,220.37 313.98,236.39 299.80,253.50 C296.15,257.90 290.90,263.72 288.12,266.43 C283.28,271.15 283.03,271.27 282.25,269.14 C281.66,267.55 281.02,267.72 277.40,272.41 C278.94,270.25 280.00,268.65 280.00,268.37 C280.00,267.99 282.37,264.49 285.27,260.59 C292.44,250.95 298.49,241.66 306.51,228.00 C313.73,215.69 316.70,211.53 324.17,203.21 C330.14,196.57 339.03,183.07 341.76,176.49 C342.91,173.74 344.55,167.49 345.40,162.61 C346.25,157.72 347.64,152.68 348.48,151.39 C350.31,148.60 363.88,142.01 373.00,139.48 C383.14,136.66 383.18,136.41 374.79,128.20 C350.21,104.14 323.03,89.80 290.00,83.43 C277.37,81.00 250.64,80.97 236.55,83.37 C216.73,86.75 194.53,95.94 176.25,108.28 C180.34,105.36 184.06,102.97 186.82,101.57 C189.18,100.37 189.86,99.53 189.17,98.69 C188.63,98.03 187.88,94.98 187.50,91.91 C186.81,86.34 186.83,86.30 190.15,84.34 C191.99,83.25 195.06,81.83 196.96,81.16 C198.86,80.50 201.33,79.11 202.46,78.06 C204.32,76.33 210.08,74.25 221.82,71.05 C225.21,70.13 225.91,69.59 225.05,68.57 C224.46,67.84 224.23,66.57 224.55,65.74 C224.89,64.85 224.03,63.12 222.46,61.55 C220.68,59.77 219.46,59.05 216.43,59.65 C221.02,58.23 225.39,57.04 228.50,56.40 C238.69,54.30 277.14,53.39 289.57,54.95 C298.93,56.13 316.09,59.99 320.50,61.91 C321.60,62.39 326.33,64.23 331.00,66.00 C365.33,79.03 399.15,107.05 418.98,138.91 C434.92,164.53 443.39,188.42 445.98,216.68 ZM 315.58 160.66 C315.94,159.47 316.92,157.72 317.75,156.77 C319.76,154.48 318.92,148.26 315.77,142.15 C312.59,135.97 307.48,133.04 299.81,133.02 C293.53,133.00 291.54,134.32 296.06,135.13 C289.23,134.71 281.97,138.98 272.73,148.41 C268.10,153.14 264.04,157.00 263.70,157.00 C263.36,157.00 259.35,153.25 254.79,148.67 C245.47,139.30 239.36,135.80 232.11,135.70 C226.04,135.60 221.44,138.22 217.59,143.95 C217.10,144.67 216.69,145.32 216.35,145.93 C216.64,145.39 216.98,144.83 217.37,144.21 C220.53,139.20 224.72,136.39 230.42,135.44 C232.66,135.07 234.82,134.58 235.21,134.35 C236.10,133.83 233.98,129.00 232.87,129.00 C232.43,129.00 232.26,128.44 232.50,127.75 C233.03,126.26 231.64,124.43 227.18,120.75 C224.03,118.15 223.72,118.09 220.94,119.53 C217.86,121.13 211.70,130.66 212.45,132.69 C212.69,133.34 212.45,134.02 211.91,134.20 C211.37,134.38 210.66,137.67 210.35,141.51 C209.87,147.31 210.19,149.75 212.22,155.79 C214.27,161.87 214.42,163.03 213.13,162.79 C211.13,162.40 209.27,155.88 208.73,147.31 C208.32,140.90 208.06,140.26 204.18,136.40 C203.76,135.98 203.36,135.58 202.99,135.21 C199.87,132.09 198.41,130.63 197.32,130.86 C196.88,130.96 196.49,131.33 196.08,131.98 C199.29,125.62 201.56,123.39 207.71,119.43 C215.78,114.24 222.55,112.67 234.65,113.21 C243.80,113.62 245.65,114.03 251.40,116.95 C254.96,118.76 258.88,121.31 260.11,122.62 C262.84,125.52 265.11,125.64 267.49,123.01 C273.48,116.40 285.56,112.63 299.04,113.17 C308.04,113.53 309.42,113.87 316.55,117.49 C330.91,124.78 337.99,137.35 337.96,155.50 C337.94,165.44 335.32,173.58 328.78,184.00 C328.06,185.15 327.30,186.29 326.48,187.44 C326.86,186.89 327.23,186.34 327.59,185.78 C331.73,179.40 336.48,169.61 333.75,173.09 C333.06,173.96 331.98,174.50 331.34,174.28 C330.70,174.07 329.89,174.37 329.53,174.95 C329.17,175.53 326.24,176.00 323.01,176.00 C317.26,176.00 317.07,176.09 314.31,180.08 C312.77,182.32 309.79,186.39 307.70,189.12 C305.95,191.40 304.98,192.69 303.70,193.27 C302.05,194.01 299.86,193.57 294.74,192.53 L 294.32 192.44 C292.67,192.11 289.56,194.33 281.32,201.74 C278.27,204.49 275.28,207.25 272.96,209.46 C275.30,207.20 278.34,204.35 281.44,201.50 C295.78,188.35 306.25,176.27 310.12,168.41 C312.62,163.32 313.65,158.09 313.28,153.33 C313.50,155.52 313.43,157.83 313.06,160.22 C312.44,164.10 312.54,164.79 313.61,163.91 C314.33,163.31 315.22,161.85 315.58,160.66 ZM 147.73 133.02 C146.55,134.37 145.96,135.26 146.18,135.49 C146.55,135.88 150.38,137.22 154.68,138.47 C164.56,141.35 175.01,146.28 178.84,149.85 C181.36,152.21 181.91,153.65 182.52,159.56 C183.98,173.47 189.19,184.97 199.68,197.40 C212.92,213.10 215.97,217.26 224.71,231.54 C232.60,244.45 245.09,263.00 255.39,277.20 C254.04,275.38 252.69,273.56 251.66,272.17 C249.54,269.33 247.38,267.00 246.85,267.00 C246.32,267.00 246.20,266.48 246.60,265.85 C247.05,265.12 246.87,264.96 246.11,265.43 C245.23,265.98 245.47,267.01 247.01,269.34 C248.16,271.08 249.61,273.51 250.21,274.75 C250.82,275.99 251.73,277.00 252.22,277.00 C252.71,277.00 252.84,277.45 252.50,278.00 C252.16,278.55 252.34,279.00 252.91,279.00 C253.47,279.00 254.46,280.01 255.11,281.25 L 256.29 283.50 L 254.01 281.50 C252.76,280.40 247.41,274.75 242.12,268.95 C231.92,257.77 230.12,255.69 223.02,246.99 C215.44,237.69 203.17,224.12 189.54,209.96 C172.06,191.81 169.08,188.17 158.00,171.49 C148.70,157.50 137.00,138.00 137.00,136.50 C137.00,136.08 139.02,135.97 141.48,136.25 C143.95,136.52 145.75,136.40 145.48,135.97 C145.36,135.78 146.22,134.68 147.73,133.02 ZM 372.51 213.25 C374.15,211.96 375.88,210.64 377.45,209.50 C383.36,205.23 388.31,199.63 391.99,193.06 C393.78,189.85 393.90,193.03 392.47,205.97 C392.31,207.42 392.13,208.87 391.95,210.32 C392.03,209.62 392.11,208.92 392.18,208.24 C393.68,194.08 392.88,192.83 387.20,200.36 C384.83,203.49 379.68,208.20 375.08,211.44 C374.16,212.10 373.30,212.69 372.51,213.25 ZM 265.21 404.03 C283.64,403.88 303.07,401.10 316.87,396.27 C301.90,401.58 283.65,404.15 265.21,404.03 ZM 399.72 334.02 C398.21,336.18 396.65,338.34 395.03,340.50 C391.16,345.63 385.78,351.35 379.37,357.20 C387.14,349.98 393.75,342.45 399.72,334.02 ZM 162.59 85.45 C155.39,90.57 148.06,96.48 141.40,102.48 C144.77,99.33 148.10,96.40 151.00,94.05 C154.39,91.31 158.41,88.34 162.59,85.45 ZM 223.64 175.96 C226.33,179.59 229.70,183.51 233.81,187.82 C230.18,184.12 227.28,180.97 225.92,179.11 C225.10,178.01 224.35,176.96 223.64,175.96 ZM 198.82 183.78 C201.39,187.84 204.82,192.13 210.10,197.78 C205.40,192.82 202.33,189.19 200.61,186.60 C199.99,185.66 199.39,184.72 198.82,183.78 ZM 213.73 396.13 C211.37,395.35 209.07,394.51 206.84,393.61 C197.97,390.03 189.88,386.18 182.37,381.94 C184.54,383.15 186.75,384.32 189.00,385.45 C198.30,390.13 206.08,393.53 213.73,396.13 ZM 250.53 203.94 C258.09,210.79 264.37,215.98 265.18,215.99 C264.11,215.98 257.82,210.65 250.53,203.94 ZM 208.00 62.41 C207.07,62.77 206.08,63.15 205.00,63.57 C201.48,64.94 198.44,66.14 195.75,67.24 C196.69,66.84 197.55,66.47 198.26,66.15 C200.85,65.02 204.28,63.71 208.00,62.41 ZM 190.51 69.43 C185.50,71.59 181.75,73.46 177.78,75.72 C181.81,73.36 185.38,71.50 187.92,70.48 C188.70,70.17 189.58,69.81 190.51,69.43 ZM 361.26 231.87 C362.71,224.09 363.42,221.85 365.01,219.94 C363.33,222.49 362.41,225.81 361.26,231.87 ZM 190.35 149.20 C189.58,155.61 190.16,162.36 192.09,168.97 C190.08,162.29 189.50,155.67 190.35,149.20 ZM 358.65 212.64 C355.44,214.96 353.85,216.00 353.52,216.00 C353.41,216.00 353.13,216.14 352.71,216.40 C353.28,216.02 353.75,215.72 354.12,215.50 C355.60,214.63 357.16,213.64 358.65,212.64 ZM 164.80 117.07 C160.25,120.91 155.51,125.19 151.95,128.66 C152.95,127.66 154.04,126.61 155.18,125.53 C158.04,122.80 161.36,119.90 164.80,117.07 ZM 445.54 262.43 C446.21,256.46 446.59,249.98 446.77,242.35 C446.80,240.97 446.83,239.67 446.85,238.45 C446.84,240.24 446.81,242.06 446.76,243.89 C446.58,250.73 446.20,256.77 445.54,262.43 ZM 214.77 155.30 C214.96,158.83 215.89,162.43 217.71,166.31 C215.75,162.31 214.90,158.93 214.77,155.30 ZM 300.61 136.10 C302.96,136.90 305.06,138.16 306.84,139.77 C306.26,139.28 305.65,138.81 305.00,138.38 C303.53,137.41 302.07,136.65 300.61,136.10 ZM 265.77 287.15 C265.71,287.16 265.64,287.17 265.57,287.19 C265.76,287.05 265.95,286.90 266.14,286.75 C266.50,286.45 267.23,285.63 268.17,284.49 C266.86,286.11 265.96,287.11 265.77,287.15 ZM 341.09 224.86 C339.59,226.03 338.10,227.20 336.75,228.31 C334.53,230.12 333.15,231.55 332.52,232.92 C333.15,231.55 334.53,230.11 336.75,228.29 C337.98,227.28 339.48,226.09 341.09,224.86 ZM 411.92 314.02 C410.66,316.42 409.34,318.80 407.95,321.17 C409.30,318.86 410.62,316.48 411.92,314.02 ZM 329.53 339.65 C319.60,348.85 308.68,357.07 296.93,364.10 C308.67,357.07 319.57,348.87 329.49,339.69 ZM 293.00 222.16 C289.71,225.27 286.38,228.55 283.30,231.69 C286.38,228.55 289.71,225.26 293.00,222.16 C294.29,220.94 295.53,219.76 296.72,218.63 C295.53,219.77 294.29,220.94 293.00,222.16 ZM 334.86 334.51 C339.09,330.29 343.11,325.88 346.92,321.31 C343.11,325.89 339.08,330.30 334.85,334.52 ZM 385.04 246.39 C384.22,249.55 383.36,252.64 382.45,255.63 C383.35,252.65 384.22,249.56 385.04,246.39 Z" fill="rgb(176,205,129)"/>
<path d="M 0.00 240.00 L 0.00 0.00 L 260.00 0.00 L 520.00 0.00 L 520.00 240.00 L 520.00 480.00 L 260.00 480.00 L 0.00 480.00 L 0.00 240.00 ZM 291.88 417.38 C341.40,410.20 389.21,379.29 417.75,336.00 C424.36,325.97 433.65,306.97 437.84,294.92 C443.91,277.46 446.22,264.24 446.76,243.89 C447.85,202.82 439.78,172.33 418.98,138.91 C399.15,107.05 365.33,79.03 331.00,66.00 C326.33,64.23 321.60,62.39 320.50,61.91 C316.09,59.99 298.93,56.13 289.57,54.95 C277.14,53.39 238.69,54.30 228.50,56.40 C220.91,57.96 205.88,62.81 198.26,66.15 C195.64,67.30 190.99,69.25 187.92,70.48 C179.97,73.67 162.11,85.07 151.00,94.05 C141.26,101.93 126.77,116.38 121.48,123.50 C119.85,125.70 118.28,127.72 117.99,128.00 C116.23,129.69 104.22,149.13 100.02,157.10 C97.08,162.67 90.94,178.81 89.02,186.00 C87.77,190.68 86.36,195.40 85.89,196.50 C82.40,204.57 79.87,240.87 81.84,254.50 C87.54,293.90 100.20,324.83 121.24,350.75 C138.94,372.54 164.93,392.63 189.19,403.25 C223.35,418.20 255.63,422.64 291.88,417.38 ZM 240.50 402.43 C221.37,399.50 208.57,395.28 189.00,385.45 C172.89,377.37 159.08,367.28 146.00,354.06 C132.53,340.45 123.37,327.96 115.13,312.00 C109.87,301.80 101.88,280.81 102.07,277.67 C102.11,277.03 104.13,280.72 106.57,285.89 C111.84,297.04 120.01,311.31 123.53,315.50 C125.77,318.17 125.65,317.64 122.43,310.62 C104.34,271.16 101.41,232.51 113.61,193.90 C119.25,176.04 130.69,153.08 132.50,155.99 C132.89,156.62 133.59,160.24 134.07,164.02 C135.66,176.69 142.80,189.85 153.90,200.56 C157.16,203.72 165.61,210.25 172.67,215.07 C189.38,226.51 196.00,231.75 196.00,233.57 C196.00,234.38 194.17,238.68 191.93,243.13 C187.17,252.61 183.97,262.33 183.11,269.92 C182.78,272.90 181.95,275.52 181.27,275.75 C178.51,276.66 171.06,255.05 167.98,237.19 C166.87,230.76 165.32,224.08 164.54,222.34 C163.71,220.50 159.82,216.67 155.18,213.14 C150.82,209.82 144.49,204.05 141.12,200.31 L 135.00 193.53 L 135.02 199.01 C135.05,209.58 140.65,242.08 143.54,248.50 C144.28,250.15 145.64,254.20 146.56,257.50 C150.37,271.18 160.06,291.68 169.23,305.45 C188.42,334.28 215.14,357.14 247.92,372.79 C263.08,380.02 264.37,380.13 275.50,375.21 C327.05,352.42 366.56,308.24 382.45,255.63 C387.05,240.41 390.60,222.83 392.47,205.97 C393.90,193.03 393.78,189.85 391.99,193.06 C388.31,199.63 383.36,205.23 377.45,209.50 C373.65,212.25 368.89,216.08 366.89,218.01 C363.01,221.74 363.02,221.72 359.45,242.00 C357.65,252.19 351.87,270.96 349.31,274.90 C347.41,277.84 346.56,276.69 345.57,269.81 C344.24,260.56 338.53,245.47 333.87,238.85 C330.96,234.71 331.54,232.56 336.75,228.31 C343.29,222.97 352.79,216.00 353.52,216.00 C354.06,216.00 357.88,213.30 366.50,206.81 C368.15,205.57 372.79,201.20 376.81,197.11 C385.86,187.89 392.27,175.64 394.11,164.00 C394.77,159.88 395.47,156.31 395.66,156.07 C396.85,154.65 403.22,166.57 409.32,181.65 C418.67,204.79 423.11,232.65 421.01,254.97 C419.80,267.76 413.69,293.67 410.99,297.50 C410.60,298.05 409.46,300.75 408.46,303.50 C407.46,306.25 405.92,309.62 405.04,311.00 C403.18,313.88 401.43,317.63 400.60,320.50 C400.09,322.28 400.21,322.25 401.76,320.22 C402.72,318.97 405.69,315.14 408.36,311.72 C412.70,306.16 421.65,289.26 423.48,283.17 C423.87,281.90 424.38,281.04 424.61,281.28 C425.51,282.17 418.93,300.18 414.44,309.14 C399.70,338.51 383.70,356.62 354.73,376.70 C347.62,381.63 325.88,392.98 318.00,395.87 C297.78,403.28 264.49,406.10 240.50,402.43 ZM 254.00 347.71 C219.55,330.37 203.99,311.16 204.04,286.00 C204.05,276.35 204.94,271.59 208.67,261.22 C211.73,252.72 211.01,252.43 220.46,266.00 C223.71,270.67 229.97,279.23 234.36,285.00 C238.75,290.77 245.72,300.00 249.85,305.50 C258.51,317.02 262.95,322.02 264.45,321.95 C265.03,321.92 268.42,318.10 272.00,313.45 C275.58,308.80 280.08,303.02 282.00,300.61 C290.68,289.75 303.34,272.67 309.39,263.66 L 315.99 253.82 L 318.09 258.66 C323.76,271.79 325.81,289.04 323.00,300.00 C322.23,303.02 321.68,305.84 321.80,306.25 C321.91,306.66 321.61,307.00 321.12,307.00 C320.64,307.00 319.32,309.14 318.20,311.75 C315.97,316.92 308.06,325.65 298.32,333.69 C292.84,338.22 267.60,353.00 265.36,353.00 C264.89,353.00 259.77,350.62 254.00,347.71 ZM 258.43 281.35 C247.65,266.80 233.40,245.75 224.71,231.54 C215.97,217.26 212.92,213.10 199.68,197.40 C189.19,184.97 183.98,173.47 182.52,159.56 C181.91,153.65 181.36,152.21 178.84,149.85 C175.01,146.28 164.56,141.35 154.68,138.47 C150.38,137.22 146.55,135.88 146.18,135.49 C145.06,134.34 164.62,116.37 174.40,109.54 C193.02,96.57 216.06,86.86 236.55,83.37 C250.64,80.97 277.37,81.00 290.00,83.43 C323.03,89.80 350.21,104.14 374.79,128.20 C383.18,136.41 383.14,136.66 373.00,139.48 C363.88,142.01 350.31,148.60 348.48,151.39 C347.64,152.68 346.25,157.72 345.40,162.61 C344.55,167.49 342.91,173.74 341.76,176.49 C339.03,183.07 330.14,196.57 324.17,203.21 C316.70,211.53 313.73,215.69 306.51,228.00 C298.49,241.66 292.44,250.95 285.27,260.59 C282.37,264.49 280.00,267.99 280.00,268.37 C280.00,269.31 268.02,285.21 266.14,286.75 C265.30,287.44 264.34,288.00 263.99,288.00 C263.65,288.00 261.14,285.01 258.43,281.35 ZM 271.00 245.33 C274.08,241.08 283.75,230.91 293.00,222.16 C316.40,200.03 323.42,192.54 328.78,184.00 C335.32,173.58 337.94,165.44 337.96,155.50 C337.99,137.35 330.91,124.78 316.55,117.49 C309.42,113.87 308.04,113.53 299.04,113.17 C285.56,112.63 273.48,116.40 267.49,123.01 C265.11,125.64 262.84,125.52 260.11,122.62 C258.88,121.31 254.96,118.76 251.40,116.95 C245.65,114.03 243.80,113.62 234.65,113.21 C222.55,112.67 215.78,114.24 207.71,119.43 C200.53,124.04 198.65,126.32 194.38,135.52 C186.86,151.72 188.97,169.07 200.61,186.60 C204.71,192.78 216.55,204.93 239.84,226.88 C248.23,234.79 256.90,243.90 259.09,247.13 C261.28,250.36 263.62,252.98 264.29,252.94 C264.95,252.91 267.98,249.49 271.00,245.33 ZM 247.15 200.85 C223.82,179.28 214.85,166.38 214.74,154.21 C214.69,149.27 215.16,147.56 217.59,143.95 C221.44,138.22 226.04,135.60 232.11,135.70 C239.36,135.80 245.47,139.30 254.79,148.67 C259.35,153.25 263.36,157.00 263.70,157.00 C264.04,157.00 268.10,153.14 272.73,148.41 C286.05,134.81 295.28,131.95 305.00,138.38 C313.78,144.19 315.90,156.66 310.12,168.41 C306.25,176.27 295.78,188.35 281.44,201.50 C275.44,207.00 269.71,212.51 268.70,213.75 C267.68,214.99 266.10,215.99 265.18,215.99 C264.25,215.98 256.14,209.17 247.15,200.85 Z" fill="rgb(253,254,253)"/>
</g>
</svg>