<svg version="1.1" xmlns="http://www.w3.org/2000/svg" style="display: block;" viewBox="0 0 2048 1890" width="520" height="480" preserveAspectRatio="none">
<defs>
	<linearGradient id="Gradient1" gradientUnits="userSpaceOnUse" x1="791.015" y1="1610.69" x2="956.053" y2="918.628">
		<stop class="stop0" offset="0" stop-opacity="1" stop-color="rgb(36,60,116)"/>
		<stop class="stop1" offset="1" stop-opacity="1" stop-color="rgb(60,149,166)"/>
	</linearGradient>
	<linearGradient id="Gradient2" gradientUnits="userSpaceOnUse" x1="1429.18" y1="324.57" x2="1287.58" y2="557.952">
		<stop class="stop0" offset="0" stop-opacity="1" stop-color="rgb(217,228,132)"/>
		<stop class="stop1" offset="1" stop-opacity="1" stop-color="rgb(173,210,158)"/>
	</linearGradient>
	<linearGradient id="Gradient3" gradientUnits="userSpaceOnUse" x1="858.227" y1="564.809" x2="947.736" y2="503.315">
		<stop class="stop0" offset="0" stop-opacity="1" stop-color="rgb(81,131,55)"/>
		<stop class="stop1" offset="1" stop-opacity="1" stop-color="rgb(143,182,90)"/>
	</linearGradient>
	<linearGradient id="Gradient4" gradientUnits="userSpaceOnUse" x1="922.136" y1="730.586" x2="910.028" y2="741.674">
		<stop class="stop0" offset="0" stop-opacity="1" stop-color="rgb(117,177,180)"/>
		<stop class="stop1" offset="1" stop-opacity="1" stop-color="rgb(83,145,151)"/>
	</linearGradient>
	<linearGradient id="Gradient5" gradientUnits="userSpaceOnUse" x1="921.239" y1="763.412" x2="943.269" y2="741.121">
		<stop class="stop0" offset="0" stop-opacity="1" stop-color="rgb(116,195,209)"/>
		<stop class="stop1" offset="1" stop-opacity="1" stop-color="rgb(133,182,164)"/>
	</linearGradient>
	<linearGradient id="Gradient6" gradientUnits="userSpaceOnUse" x1="850.842" y1="857.335" x2="950.508" y2="722.815">
		<stop class="stop0" offset="0" stop-opacity="1" stop-color="rgb(44,103,147)"/>
		<stop class="stop1" offset="1" stop-opacity="1" stop-color="rgb(89,178,179)"/>
	</linearGradient>
	<linearGradient id="Gradient7" gradientUnits="userSpaceOnUse" x1="941.186" y1="1247.22" x2="908.55" y2="1349.61">
		<stop class="stop0" offset="0" stop-opacity="1" stop-color="rgb(39,68,111)"/>
		<stop class="stop1" offset="1" stop-opacity="1" stop-color="rgb(51,94,145)"/>
	</linearGradient>
	<linearGradient id="Gradient8" gradientUnits="userSpaceOnUse" x1="797.476" y1="1384.21" x2="1054.26" y2="823.984">
		<stop class="stop0" offset="0" stop-opacity="1" stop-color="rgb(23,55,109)"/>
		<stop class="stop1" offset="1" stop-opacity="1" stop-color="rgb(93,178,193)"/>
	</linearGradient>
</defs>
<path transform="translate(0,0)" fill="rgb(92,153,165)" d="M 520.18 604.17 C 524.69 592.079 522.979 536.484 530.105 529.256 C 538.601 528.932 557.55 532.504 565.387 536.279 C 568.619 537.435 574.576 537.164 578.243 537.205 C 604.62 539.565 691.024 572.286 709.799 594.861 C 720.917 608.229 715.399 637.521 720.537 656.778 C 724.884 673.068 728.886 684.549 735.364 700.418 L 735.758 701.087 C 744.264 715.808 747.421 727.119 758.288 743.144 C 784.377 781.618 819.189 812.472 845.458 850.17 C 871.069 886.924 892.898 928.791 917.464 966.639 C 927.289 981.776 937.482 996.596 947.489 1011.58 C 949.421 1014.48 958.564 1027.52 959.678 1029.94 C 963.113 1034.02 967.21 1040.03 970.262 1044.5 C 991.808 1076.09 1016.76 1105.82 1038.56 1137.08 C 1067.76 1102.55 1095.43 1061.32 1122.2 1024.77 C 1127.08 1018.11 1131.01 1011.13 1136.63 1004.97 C 1135.5 1020.11 1099.93 1045.13 1113.51 1064.91 C 1122.55 1069.47 1124.81 1057.49 1128.9 1053.42 C 1136.82 1045.52 1147.32 1030.22 1157.07 1025.37 C 1179.1 1001.41 1199.91 972.995 1221.37 948.423 C 1256.69 907.991 1294.88 865.158 1333.29 827.853 C 1344.04 822.961 1359.82 798.575 1370.15 791.282 C 1370.9 790.752 1410.79 796.445 1415.1 797.008 C 1423.38 798.088 1432.05 803.521 1441.02 802.705 L 1443.26 805.296 C 1447.52 803.881 1448.24 803.412 1452.6 803.551 C 1451.29 806.027 1440.92 812.894 1436.84 816.624 L 1437.23 818.514 L 1435.82 819.722 C 1416.66 835.963 1305.67 904.043 1305.1 921.219 C 1305.05 922.744 1305.85 924.757 1306.53 926.097 C 1309.03 931.068 1312.77 935.499 1315.57 940.333 C 1322.69 952.617 1329.48 965.559 1335.26 978.538 C 1349.37 1010.22 1364.81 1062.72 1365.64 1097.06 C 1396.48 1029.14 1405.96 992.877 1419.9 920.566 C 1424.89 863.832 1432.29 864.961 1473.31 832.062 C 1482.46 824.613 1491.46 816.987 1500.31 809.188 C 1521.18 790.537 1532.56 770.317 1550.19 752.122 C 1550.11 759.181 1549.74 768.816 1548.28 775.641 C 1543.12 853.876 1529.06 931.267 1506.36 1006.31 C 1504.15 1013.42 1497.47 1035.6 1494.6 1041.16 C 1493.9 1046.62 1476.47 1088.47 1473.19 1095.61 C 1387.57 1280.41 1232.38 1423.87 1041.44 1494.73 C 1028.01 1491.33 1001.97 1480.65 989.246 1474.94 C 918.87 1443.02 853.524 1401.01 795.27 1350.24 C 662.31 1232.88 586.713 1096.76 550.631 923.589 C 540.824 876.519 532.991 827.205 529.935 779.173 C 529.36 772.248 528.584 764.913 528.735 758.005 C 537.603 765.556 545.272 777.26 552.967 786.257 C 559.034 793.35 564.493 798.866 571.246 805.287 C 580.262 813.849 589.628 822.035 599.319 829.824 C 645.887 866.673 651.286 859.694 659.299 923.314 C 665.983 976.39 686.961 1044.65 712.333 1092.15 C 717.368 1042.16 729.101 999.951 751.836 954.738 C 758.134 942.213 766.689 929.682 772.423 918.26 C 762.079 906.406 754.396 899.444 741.801 889.93 C 739.755 888.384 730.088 881.361 729.107 880.407 C 698.153 858.45 663.688 837.613 633.778 815.317 C 586.958 780.416 545.688 726.077 530.621 669.351 C 525.545 650.238 522.911 623.981 520.18 604.17 z M 805.101 1164.48 C 807.327 1174 810.894 1189.92 814.253 1199.04 C 844.086 1272.32 911.772 1323.83 980.269 1359.14 C 992.11 1365.18 1004.1 1370.9 1016.24 1376.31 C 1022.9 1379.28 1033.58 1383.45 1039.29 1386.9 C 1112.91 1355.58 1186.05 1313.83 1234.44 1248.12 C 1237.38 1244.13 1240.54 1238.54 1243.63 1234.98 L 1244.43 1234.08 C 1257.14 1213.01 1267.8 1187.69 1272.35 1163.62 C 1282.35 1110.66 1266.88 1046.89 1243.49 999.518 C 1238.4 1010.8 1220.33 1035.11 1212.86 1046.05 C 1180.62 1093.21 1145.5 1138.34 1110.54 1183.51 C 1095.24 1203.35 1079.74 1223.04 1064.05 1242.57 C 1058.6 1249.41 1045.59 1270.25 1037.51 1270.76 C 1030.34 1264.93 1016.75 1246.62 1010.25 1238.32 C 992.793 1216.28 975.682 1193.98 958.922 1171.41 C 925.214 1126.62 890.506 1082.13 858.534 1036.05 C 851.376 1025.74 839.001 1009.28 833.058 999.497 C 810.712 1050.9 794.361 1108.16 805.101 1164.48 z"/>
<path transform="translate(0,0)" fill="url(#Gradient8)" d="M 529.935 779.173 C 535.101 782.042 540.292 791.825 543.662 797.113 C 584.856 861.883 603.488 937.928 630.653 1009.08 C 634.56 1019.32 649.046 1049.2 650.868 1056.69 C 654.337 1070.94 691.933 1125.92 692.546 1132.79 C 694.207 1140.13 707.67 1157.54 712.626 1164.18 C 756.434 1223.64 811.03 1274.34 873.57 1313.63 C 879.808 1317.53 885.854 1321.43 893.13 1322.58 C 908.285 1334.39 949.689 1359.89 967.824 1369.42 C 976.187 1375.61 1032.2 1403.16 1041.16 1398.48 C 1042.86 1394.3 1041.6 1392.27 1039.74 1387.92 L 1039.29 1386.9 C 1112.91 1355.58 1186.05 1313.83 1234.44 1248.12 C 1237.38 1244.13 1240.54 1238.54 1243.63 1234.98 L 1244.43 1234.08 L 1245.25 1235.69 C 1253.7 1230.32 1270.73 1181.66 1273.5 1170.12 C 1275.35 1162.42 1275.3 1155.95 1276.63 1151.13 C 1279.94 1156.15 1277.57 1180.34 1282.68 1185.36 C 1291.31 1187.06 1316.13 1199.34 1321.8 1205.81 L 1327.19 1206.07 C 1325.75 1213.57 1277.51 1255.1 1274.97 1260.68 C 1286.04 1252.48 1296.31 1241.67 1306.18 1232.18 C 1339.5 1200.15 1366.42 1164.67 1390.42 1125.27 C 1399.94 1109.64 1408.4 1088.26 1418.03 1072.8 L 1418.56 1071.98 C 1421.53 1069.46 1437.6 1030.88 1440.32 1024.52 C 1447.78 1037.59 1473.12 1031.04 1485.33 1031.76 C 1488.64 1029.17 1490.28 1027.39 1494.32 1026.61 L 1495.52 1027.54 C 1495.5 1032.38 1495.1 1033.26 1493.78 1038.03 L 1494.6 1041.16 C 1493.9 1046.62 1476.47 1088.47 1473.19 1095.61 C 1387.57 1280.41 1232.38 1423.87 1041.44 1494.73 C 1028.01 1491.33 1001.97 1480.65 989.246 1474.94 C 918.87 1443.02 853.524 1401.01 795.27 1350.24 C 662.31 1232.88 586.713 1096.76 550.631 923.589 C 540.824 876.519 532.991 827.205 529.935 779.173 z"/>
<path transform="translate(0,0)" fill="rgb(101,146,57)" d="M 520.18 604.17 C 524.69 592.079 522.979 536.484 530.105 529.256 C 538.601 528.932 557.55 532.504 565.387 536.279 C 568.619 537.435 574.576 537.164 578.243 537.205 C 604.62 539.565 691.024 572.286 709.799 594.861 C 720.917 608.229 715.399 637.521 720.537 656.778 C 724.884 673.068 728.886 684.549 735.364 700.418 C 728.12 695.341 731.132 691.588 724.749 683.682 L 723.764 684.196 C 723.349 690.722 728.398 697.998 727.207 706.189 C 727.052 707.256 727.468 708.524 727.845 709.534 C 729.308 713.71 737.716 729.396 737.627 731.435 C 732.217 729.598 731.131 721.475 726.287 715.508 C 726.535 720.109 735.686 735.777 738.438 740.8 C 736.433 741.079 736.485 740.855 734.557 740.403 C 725.886 747.783 717.936 753.454 711.107 762.485 C 712.719 764.151 716.919 768.233 717.938 769.949 C 711.748 768.191 689.904 740.866 685.753 742.078 C 682.101 739.036 680.969 738.175 678.164 734.395 C 676.161 736.648 673.767 739.53 671.518 741.403 C 677.692 749.327 689.008 760.549 691.792 768.83 C 705.008 784.222 718.403 798.27 732.293 813.004 C 734.564 815.412 748.946 830.253 750.402 832.342 L 749.879 833.599 C 746.736 830.861 743.021 825.701 740.405 824.529 C 738.509 830.179 735.651 828.151 731.766 832.678 C 728.879 836.043 727.291 839.614 724.987 843.234 C 721.426 847.184 714.485 851.243 712.016 856.016 C 710.939 867.386 725.396 870.695 729.107 880.407 C 698.153 858.45 663.688 837.613 633.778 815.317 C 586.958 780.416 545.688 726.077 530.621 669.351 C 525.545 650.238 522.911 623.981 520.18 604.17 z"/>
<path transform="translate(0,0)" fill="rgb(150,185,63)" d="M 536.926 542.611 L 535.309 532.949 C 537.028 531.974 542.723 534.45 546.494 535.219 L 545.878 535.001 C 552.981 534.984 558.296 535.548 565.387 536.279 C 568.619 537.435 574.576 537.164 578.243 537.205 C 604.62 539.565 691.024 572.286 709.799 594.861 C 720.917 608.229 715.399 637.521 720.537 656.778 C 724.884 673.068 728.886 684.549 735.364 700.418 C 728.12 695.341 731.132 691.588 724.749 683.682 L 723.764 684.196 C 723.349 690.722 728.398 697.998 727.207 706.189 C 727.052 707.256 727.468 708.524 727.845 709.534 C 729.308 713.71 737.716 729.396 737.627 731.435 C 732.217 729.598 731.131 721.475 726.287 715.508 C 726.535 720.109 735.686 735.777 738.438 740.8 C 736.433 741.079 736.485 740.855 734.557 740.403 C 725.886 747.783 717.936 753.454 711.107 762.485 C 712.719 764.151 716.919 768.233 717.938 769.949 C 711.748 768.191 689.904 740.866 685.753 742.078 C 682.101 739.036 680.969 738.175 678.164 734.395 C 676.161 736.648 673.767 739.53 671.518 741.403 C 677.692 749.327 689.008 760.549 691.792 768.83 C 657.018 731.931 630.44 690.315 602.788 648.203 C 591.577 631.128 550.274 550.144 536.926 542.611 z"/>
<path transform="translate(0,0)" fill="rgb(171,204,167)" d="M 727.845 709.534 C 727.468 708.524 727.052 707.256 727.207 706.189 C 728.398 697.998 723.349 690.722 723.764 684.196 L 724.749 683.682 C 731.132 691.588 728.12 695.341 735.364 700.418 L 735.758 701.087 C 744.264 715.808 747.421 727.119 758.288 743.144 C 784.377 781.618 819.189 812.472 845.458 850.17 C 871.069 886.924 892.898 928.791 917.464 966.639 C 927.289 981.776 937.482 996.596 947.489 1011.58 C 949.421 1014.48 958.564 1027.52 959.678 1029.94 C 963.113 1034.02 967.21 1040.03 970.262 1044.5 C 991.808 1076.09 1016.76 1105.82 1038.56 1137.08 C 1067.76 1102.55 1095.43 1061.32 1122.2 1024.77 C 1127.08 1018.11 1131.01 1011.13 1136.63 1004.97 C 1135.5 1020.11 1099.93 1045.13 1113.51 1064.91 C 1122.55 1069.47 1124.81 1057.49 1128.9 1053.42 C 1136.82 1045.52 1147.32 1030.22 1157.07 1025.37 C 1154.74 1029.77 1142.22 1042.51 1138.86 1046.32 C 1121.74 1065.7 1054.63 1141.67 1034 1148.04 C 1029.65 1146.17 1008.39 1121.62 1005.97 1117.52 C 973.631 1081.72 940.876 1048.2 909.876 1011.16 C 869.843 963.331 830.678 914.447 787.296 869.657 C 775.956 857.949 762.364 843.129 750.402 832.342 C 748.946 830.253 734.564 815.412 732.293 813.004 C 718.403 798.27 705.008 784.222 691.792 768.83 C 689.008 760.549 677.692 749.327 671.518 741.403 C 673.767 739.53 676.161 736.648 678.164 734.395 C 680.969 738.175 682.101 739.036 685.753 742.078 C 689.904 740.866 711.748 768.191 717.938 769.949 C 716.919 768.233 712.719 764.151 711.107 762.485 C 717.936 753.454 725.886 747.783 734.557 740.403 C 736.485 740.855 736.433 741.079 738.438 740.8 C 735.686 735.777 726.535 720.109 726.287 715.508 C 731.131 721.475 732.217 729.598 737.627 731.435 C 737.716 729.396 729.308 713.71 727.845 709.534 z"/>
<path transform="translate(0,0)" fill="rgb(144,178,110)" d="M 727.845 709.534 C 727.468 708.524 727.052 707.256 727.207 706.189 C 728.398 697.998 723.349 690.722 723.764 684.196 L 724.749 683.682 C 731.132 691.588 728.12 695.341 735.364 700.418 L 735.758 701.087 C 744.264 715.808 747.421 727.119 758.288 743.144 C 784.377 781.618 819.189 812.472 845.458 850.17 C 871.069 886.924 892.898 928.791 917.464 966.639 C 927.289 981.776 937.482 996.596 947.489 1011.58 C 949.421 1014.48 958.564 1027.52 959.678 1029.94 C 960.096 1034.21 967.743 1046.01 970.528 1051.71 C 961.894 1048.3 894.329 942.32 886.434 928.491 C 884.429 924.978 882.145 920.531 878.736 916.903 C 875.786 908.288 856.582 874.164 849.732 866.746 C 845.384 862.038 829.047 859.777 819.258 853.323 C 800.884 841.207 786.015 829.361 768.881 815.753 C 744.687 796.537 720.891 779.265 699.566 756.589 C 695.485 752.25 688.99 746.712 685.753 742.078 C 689.904 740.866 711.748 768.191 717.938 769.949 C 716.919 768.233 712.719 764.151 711.107 762.485 C 717.936 753.454 725.886 747.783 734.557 740.403 C 736.485 740.855 736.433 741.079 738.438 740.8 C 735.686 735.777 726.535 720.109 726.287 715.508 C 731.131 721.475 732.217 729.598 737.627 731.435 C 737.716 729.396 729.308 713.71 727.845 709.534 z"/>
<path transform="translate(0,0)" fill="rgb(176,207,107)" d="M 727.845 709.534 C 732.844 715.048 738.486 728.088 742.845 734.97 C 755.147 754.399 770.732 771.85 784.783 789.908 C 790.266 796.956 807.934 812.448 811.185 818.47 L 810.15 818.533 C 805.143 813.905 792.594 799.544 787.71 798.567 L 787.444 800.026 C 792.18 806.211 796.389 811.751 801.608 817.587 C 804.962 821.338 812.562 827.058 813.831 830.579 C 810.965 829.347 806.046 823.537 803.308 820.883 C 778.742 797.07 757.656 769.114 738.438 740.8 C 735.686 735.777 726.535 720.109 726.287 715.508 C 731.131 721.475 732.217 729.598 737.627 731.435 C 737.716 729.396 729.308 713.71 727.845 709.534 z"/>
<path transform="translate(0,0)" fill="rgb(111,168,181)" d="M 878.736 916.903 C 882.145 920.531 884.429 924.978 886.434 928.491 C 894.329 942.32 961.894 1048.3 970.528 1051.71 C 967.743 1046.01 960.096 1034.21 959.678 1029.94 C 963.113 1034.02 967.21 1040.03 970.262 1044.5 C 991.808 1076.09 1016.76 1105.82 1038.56 1137.08 C 1067.76 1102.55 1095.43 1061.32 1122.2 1024.77 C 1127.08 1018.11 1131.01 1011.13 1136.63 1004.97 C 1135.5 1020.11 1099.93 1045.13 1113.51 1064.91 C 1122.55 1069.47 1124.81 1057.49 1128.9 1053.42 C 1136.82 1045.52 1147.32 1030.22 1157.07 1025.37 C 1154.74 1029.77 1142.22 1042.51 1138.86 1046.32 C 1121.74 1065.7 1054.63 1141.67 1034 1148.04 C 1029.65 1146.17 1008.39 1121.62 1005.97 1117.52 C 1013.89 1122.69 1017.22 1129.6 1022.3 1132.66 C 1017.8 1125.68 1013.43 1118.41 1008.74 1111.59 C 1004.27 1105.09 996.74 1098.7 992.641 1092.01 C 960.604 1039.71 921.47 992.327 890.724 938.975 C 888.355 934.864 879.042 920.841 878.736 916.903 z"/>
<path transform="translate(0,0)" fill="rgb(111,168,181)" d="M 1440.32 1024.52 C 1467.17 959.366 1486.51 891.295 1518.5 828.424 C 1521.76 822.022 1527.47 815.772 1530.74 809.307 C 1535.29 800.318 1538.85 791.157 1543.78 782.319 C 1546.26 780.781 1546.87 778.451 1548.28 775.641 C 1543.12 853.876 1529.06 931.267 1506.36 1006.31 C 1504.15 1013.42 1497.47 1035.6 1494.6 1041.16 L 1493.78 1038.03 C 1495.1 1033.26 1495.5 1032.38 1495.52 1027.54 L 1494.32 1026.61 C 1490.28 1027.39 1488.64 1029.17 1485.33 1031.76 C 1473.12 1031.04 1447.78 1037.59 1440.32 1024.52 z"/>
<path transform="translate(0,0)" fill="rgb(121,188,191)" d="M 1419.9 920.566 C 1424.89 863.832 1432.29 864.961 1473.31 832.062 C 1482.46 824.613 1491.46 816.987 1500.31 809.188 C 1521.18 790.537 1532.56 770.317 1550.19 752.122 C 1550.11 759.181 1549.74 768.816 1548.28 775.641 C 1546.87 778.451 1546.26 780.781 1543.78 782.319 C 1538.85 791.157 1535.29 800.318 1530.74 809.307 C 1527.47 815.772 1521.76 822.022 1518.5 828.424 C 1486.51 891.295 1467.17 959.366 1440.32 1024.52 C 1437.6 1030.88 1421.53 1069.46 1418.56 1071.98 C 1418.48 1069.17 1422.76 1060.74 1424.15 1057.81 C 1452.64 997.752 1471 933.771 1495.81 872.254 C 1500.73 860.06 1507.47 848.108 1511.68 835.586 L 1510.32 834.048 L 1508.87 834.46 C 1507.7 837.054 1506.9 839.958 1504.58 841.188 C 1503.94 840.107 1503.29 839.037 1502.62 837.975 L 1501.52 838.775 C 1500.91 840.316 1500.76 840.387 1499.85 841.789 C 1496.47 841.711 1496.23 841.606 1492.94 840.521 L 1492.11 840.241 L 1486.13 844.59 C 1483.93 843.642 1485.04 843.8 1482.73 844.429 C 1481.91 846.241 1481.12 848.068 1480.37 849.909 L 1479.04 849.185 C 1479.02 845.986 1483.51 839.662 1485.33 835.602 C 1485.01 831.572 1485.01 832.392 1488.18 829.87 C 1486.06 828.717 1486.11 828.429 1484.34 826.612 C 1478.49 827.45 1472.34 835.371 1472.8 841.454 L 1473.76 842.08 C 1475.34 840.343 1476.29 838.883 1478.49 838.192 C 1483.71 849.371 1455.64 868.6 1447.19 876.425 C 1443.64 876.627 1445.41 876.868 1441.84 875.061 C 1439.59 871.815 1439.9 869.052 1439.67 865.021 L 1438.62 864.618 C 1427.26 872.943 1424.97 895.942 1423.6 909.086 C 1422.89 915.931 1421.87 920.398 1420.66 927.129 L 1419.9 920.566 z"/>
<path transform="translate(0,0)" fill="url(#Gradient7)" d="M 814.253 1199.04 C 844.086 1272.32 911.772 1323.83 980.269 1359.14 C 992.11 1365.18 1004.1 1370.9 1016.24 1376.31 C 1022.9 1379.28 1033.58 1383.45 1039.29 1386.9 L 1039.74 1387.92 C 1041.6 1392.27 1042.86 1394.3 1041.16 1398.48 C 1032.2 1403.16 976.187 1375.61 967.824 1369.42 C 977.33 1369.12 1012.75 1394.36 1039.14 1396.83 L 1040.11 1395.47 C 1039.32 1393.09 1040.09 1394.01 1037.97 1392.5 C 1034.29 1393.18 1032.29 1393.11 1028.94 1391.67 C 942.473 1354.31 847.608 1296.74 810.484 1206.66 L 814.253 1199.04 z"/>
<path transform="translate(0,0)" fill="rgb(56,95,136)" d="M 692.546 1132.79 C 692.892 1133.14 693.239 1133.49 693.585 1133.84 C 721.329 1175.16 751.775 1210.72 787.499 1245.37 L 787.933 1243.89 L 789.448 1242.67 C 791.889 1244.66 792.217 1245.2 794.167 1247.57 C 796.793 1247.35 796.635 1247.33 799.012 1246.14 C 807.46 1246.58 818.254 1250.84 821.792 1249.79 L 822.264 1248.38 C 808.785 1228.73 787.558 1188.89 789.58 1164.38 L 790.991 1164.65 C 793.452 1176.18 794.466 1185.95 798.29 1198.21 C 809.856 1235.28 837.653 1270.04 865.183 1296.87 C 874.372 1305.82 884.272 1313.35 893.13 1322.58 C 885.854 1321.43 879.808 1317.53 873.57 1313.63 C 811.03 1274.34 756.434 1223.64 712.626 1164.18 C 707.67 1157.54 694.207 1140.13 692.546 1132.79 z"/>
<path transform="translate(0,0)" fill="rgb(56,95,136)" d="M 805.101 1164.48 C 807.327 1174 810.894 1189.92 814.253 1199.04 L 810.484 1206.66 C 808.305 1202.06 798.83 1180.83 800.715 1177.21 C 802.484 1179.43 804.378 1184.12 805.622 1186.86 C 809.825 1182.19 802.071 1174.34 805.101 1164.48 z"/>
<path transform="translate(0,0)" fill="rgb(121,188,191)" d="M 557.475 804.209 L 558.147 804.084 C 572.547 818.18 587.558 831.64 603.135 844.424 C 612.597 852.062 639.407 867.975 640.654 879.347 C 638.863 879.622 638.221 879.61 636.639 878.3 C 623.471 867.393 609.935 858.101 595.739 848.613 C 585.13 839.828 568.993 825.928 559.664 816.191 L 560.011 815.224 C 568.101 817.575 592.682 850.821 603.355 848.403 L 601.918 849.282 L 603.416 847.306 C 595.257 839.401 561.006 811.157 557.475 804.209 z"/>
<path transform="translate(0,0)" fill="rgb(176,207,107)" d="M 796.916 483.362 C 818.745 459.093 863.981 442.445 896.535 441.561 C 961.571 439.794 990.704 452.687 1037.18 493.183 C 1046.97 485.505 1056.08 477.137 1066.24 469.974 C 1102.69 444.257 1145.41 437.898 1189.01 443.272 C 1286.8 455.323 1343.74 538.595 1330.29 634.123 C 1330 636.313 1329.61 638.49 1329.13 640.648 C 1324.14 663.253 1313.69 697.666 1299.52 715.943 C 1283.4 751.158 1224.82 809.847 1195.34 835.11 C 1193.33 836.833 1182.2 846.544 1180.87 847.297 C 1177.84 850.577 1173.51 854.099 1170.12 857.162 C 1129.87 893.588 1090.55 931.801 1058.4 975.737 C 1053.85 981.958 1045.45 996.759 1038.42 998.676 C 1035.79 997.438 1027.25 983.704 1024.35 979.678 C 1010.63 960.881 995.877 942.869 980.143 925.729 C 912.073 851.839 819.544 797.33 772.207 704.854 C 756.104 673.397 742.942 632.947 746.065 597.502 C 746.027 595.665 746.065 593.826 746.181 591.992 C 748.231 556.716 770.275 507.088 796.916 483.362 z M 1038.92 621.583 C 1037.04 619.682 1032.99 615.878 1031.76 613.833 C 1026.7 609.265 1019.15 599.199 1014.35 593.64 C 980.72 554.76 926.4 507.684 873.786 544.312 C 839.647 576.815 837.958 598.328 849.51 642.09 L 849.787 643.158 C 879.762 704.877 919.424 744.98 971.005 790.028 C 978.652 796.706 986.199 804.628 993.831 810.855 C 1010.56 824.594 1023.94 838.837 1039.42 853.76 C 1049.38 844.171 1058.54 833.138 1067.9 824.306 C 1081.24 810.338 1100.73 794.186 1115.15 781.146 C 1124.59 772.611 1134.61 762.928 1144.08 754.782 C 1175.73 721.399 1196.18 703.314 1218.57 661.348 C 1228.57 638.652 1235.51 620.136 1231.93 595.07 C 1225.86 552.55 1192.48 525.546 1149.2 532.17 C 1097.57 546.142 1073.85 584.903 1038.92 621.583 z"/>
<path transform="translate(0,0)" fill="url(#Gradient6)" d="M 796.916 483.362 C 795.186 490.796 784.803 500.648 779.452 506.992 C 780.07 508.472 782.625 514.473 783.478 515.118 C 790.514 520.437 811.164 548.31 817.7 549.144 C 821.417 546.055 818.867 544.285 821.302 540.388 C 822.332 545.804 820.193 558.793 819.237 564.696 C 823.993 583.736 821.811 631.812 840.271 644.22 C 843.222 644.207 841.948 644.658 844.244 642.88 C 843.478 636.796 838.84 626.339 836.611 620.009 C 827.932 595.36 826.045 581.046 828.735 555.533 C 829.133 544.695 831.095 535.137 833.579 524.643 C 835.313 533.007 841.172 538.32 847.43 543.956 C 868.964 551.205 863.265 543.141 873.786 544.312 C 839.647 576.815 837.958 598.328 849.51 642.09 L 849.787 643.158 C 879.762 704.877 919.424 744.98 971.005 790.028 C 978.652 796.706 986.199 804.628 993.831 810.855 C 1010.56 824.594 1023.94 838.837 1039.42 853.76 C 1049.38 844.171 1058.54 833.138 1067.9 824.306 C 1067.06 829.03 1066.55 829.147 1063.32 832.541 L 1060.49 835.557 L 1060.49 849.352 C 1067.14 853.069 1084.06 860.219 1085.64 866.55 C 1087.67 874.641 1081.13 877.705 1092.87 883.813 C 1095.15 884.999 1108.84 893.073 1111.14 892.072 C 1118.24 888.975 1148.33 859.117 1153.51 859.065 C 1151.46 863.69 1144.66 868.575 1140.52 871.701 C 1162.9 871.577 1167.83 847.861 1180.87 847.297 C 1177.84 850.577 1173.51 854.099 1170.12 857.162 C 1129.87 893.588 1090.55 931.801 1058.4 975.737 C 1053.85 981.958 1045.45 996.759 1038.42 998.676 C 1035.79 997.438 1027.25 983.704 1024.35 979.678 C 1010.63 960.881 995.877 942.869 980.143 925.729 C 912.073 851.839 819.544 797.33 772.207 704.854 C 756.104 673.397 742.942 632.947 746.065 597.502 C 746.027 595.665 746.065 593.826 746.181 591.992 C 748.231 556.716 770.275 507.088 796.916 483.362 z"/>
<path transform="translate(0,0)" fill="rgb(112,168,145)" d="M 796.916 483.362 C 795.186 490.796 784.803 500.648 779.452 506.992 C 780.07 508.472 782.625 514.473 783.478 515.118 C 790.514 520.437 811.164 548.31 817.7 549.144 C 821.417 546.055 818.867 544.285 821.302 540.388 C 822.332 545.804 820.193 558.793 819.237 564.696 C 817.641 596.31 825.008 618.612 834.557 647.816 L 833.786 649.031 C 836.409 658.33 840.134 661.105 842.934 668.827 C 823.455 671.201 782.266 592.756 755.417 588.793 C 751.384 588.197 754.346 579.375 752.002 575.737 C 747.903 580.093 750.588 591.686 746.065 597.502 C 746.027 595.665 746.065 593.826 746.181 591.992 C 748.231 556.716 770.275 507.088 796.916 483.362 z"/>
<path transform="translate(0,0)" fill="url(#Gradient5)" d="M 828.735 555.533 C 829.133 544.695 831.095 535.137 833.579 524.643 C 835.313 533.007 841.172 538.32 847.43 543.956 C 868.964 551.205 863.265 543.141 873.786 544.312 C 839.647 576.815 837.958 598.328 849.51 642.09 L 849.787 643.158 C 879.762 704.877 919.424 744.98 971.005 790.028 C 978.652 796.706 986.199 804.628 993.831 810.855 L 990.856 812.709 C 990.77 819.79 1003.69 825.872 1007.98 833.672 C 1013.56 837.988 1039.29 860.184 1038.07 866.551 C 1029.5 867.845 1017.88 853.278 1011.78 847.808 C 943.062 786.205 873.727 734.235 834.557 647.816 C 825.008 618.612 817.641 596.31 819.237 564.696 C 823.993 583.736 821.811 631.812 840.271 644.22 C 843.222 644.207 841.948 644.658 844.244 642.88 C 843.478 636.796 838.84 626.339 836.611 620.009 C 827.932 595.36 826.045 581.046 828.735 555.533 z"/>
<path transform="translate(0,0)" fill="url(#Gradient4)" d="M 849.787 643.158 C 879.762 704.877 919.424 744.98 971.005 790.028 C 978.652 796.706 986.199 804.628 993.831 810.855 L 990.856 812.709 C 990.77 819.79 1003.69 825.872 1007.98 833.672 C 996.101 824.285 989.87 816.266 979.103 806.533 C 968.674 797.107 954.967 788.187 944.239 778.271 C 931.377 766.383 920.037 754.132 907.694 741.083 C 886.16 718.315 860.11 688.33 850.25 658.053 C 849.338 655.252 849.692 646.591 849.787 643.158 z"/>
<path transform="translate(0,0)" fill="rgb(101,146,57)" d="M 828.735 555.533 C 829.133 544.695 831.095 535.137 833.579 524.643 C 835.313 533.007 841.172 538.32 847.43 543.956 C 868.964 551.205 863.265 543.141 873.786 544.312 C 839.647 576.815 837.958 598.328 849.51 642.09 C 845.848 638.125 842.983 631.281 840.932 626.252 C 830.441 600.525 828.75 582.396 828.735 555.533 z"/>
<path transform="translate(0,0)" fill="rgb(121,188,191)" d="M 1247.82 618.499 L 1250.48 616.59 C 1254.69 618.424 1254.94 623.096 1255.48 627.437 C 1253.94 655.796 1257.94 657.521 1247.2 687.592 C 1265.96 683.776 1281.99 683.136 1300.62 686.897 L 1300.96 687.135 C 1310.25 677.352 1313.61 652.031 1319.22 643.757 C 1320.62 648.121 1316.56 659.099 1315.13 663.873 L 1315.91 665.096 C 1327.35 663.973 1321.09 647.183 1329.13 640.648 C 1324.14 663.253 1313.69 697.666 1299.52 715.943 C 1283.4 751.158 1224.82 809.847 1195.34 835.11 C 1193.33 836.833 1182.2 846.544 1180.87 847.297 C 1167.83 847.861 1162.9 871.577 1140.52 871.701 C 1144.66 868.575 1151.46 863.69 1153.51 859.065 C 1148.33 859.117 1118.24 888.975 1111.14 892.072 C 1108.84 893.073 1095.15 884.999 1092.87 883.813 C 1081.13 877.705 1087.67 874.641 1085.64 866.55 C 1084.06 860.219 1067.14 853.069 1060.49 849.352 L 1060.49 835.557 L 1063.32 832.541 C 1066.55 829.147 1067.06 829.03 1067.9 824.306 C 1081.24 810.338 1100.73 794.186 1115.15 781.146 C 1124.59 772.611 1134.61 762.928 1144.08 754.782 C 1175.73 721.399 1196.18 703.314 1218.57 661.348 C 1221.63 659.371 1222.25 656.788 1224.87 654.53 C 1227.01 652.684 1230.04 650.687 1232.42 649.105 L 1229.72 652.689 C 1238.12 647.185 1244.84 628.151 1247.82 618.499 z"/>
<path transform="translate(0,0)" fill="rgb(171,204,167)" d="M 1247.82 618.499 L 1250.48 616.59 C 1254.69 618.424 1254.94 623.096 1255.48 627.437 C 1253.94 655.796 1257.94 657.521 1247.2 687.592 C 1233.03 714.155 1216.97 738.485 1196.27 760.456 C 1192.94 763.988 1187.92 770.587 1183.3 771.551 C 1184.29 767.606 1188.93 767.985 1189.17 763.384 C 1178.23 754.238 1154.2 764.779 1153.3 750.522 C 1147.44 752.429 1149.52 756.056 1145.11 756.194 L 1144.08 754.782 C 1175.73 721.399 1196.18 703.314 1218.57 661.348 C 1221.63 659.371 1222.25 656.788 1224.87 654.53 C 1227.01 652.684 1230.04 650.687 1232.42 649.105 L 1229.72 652.689 C 1238.12 647.185 1244.84 628.151 1247.82 618.499 z"/>
<path transform="translate(0,0)" fill="rgb(112,168,145)" d="M 1300.96 687.135 C 1310.25 677.352 1313.61 652.031 1319.22 643.757 C 1320.62 648.121 1316.56 659.099 1315.13 663.873 L 1315.91 665.096 C 1327.35 663.973 1321.09 647.183 1329.13 640.648 C 1324.14 663.253 1313.69 697.666 1299.52 715.943 C 1298.46 707.368 1314.52 689.857 1315.03 680.445 C 1315.4 673.796 1319.29 673.464 1317.84 668.947 L 1316.32 668.709 C 1309.32 673.614 1302.45 698.029 1292.58 710.206 L 1291.92 710.008 C 1293.72 704.543 1301.57 690.141 1300.96 687.135 z"/>
<path transform="translate(0,0)" fill="rgb(171,204,167)" d="M 1247.2 687.592 C 1265.96 683.776 1281.99 683.136 1300.62 686.897 L 1299.21 688.427 C 1299.12 688.44 1286.57 688.088 1286.18 688.044 C 1278.24 687.119 1252.61 691.178 1247.2 687.592 z"/>
<path transform="translate(0,0)" fill="url(#Gradient3)" d="M 833.579 524.643 C 846.237 486.693 870.955 450.724 915.9 456.134 C 919.279 456.54 925.873 456.286 928.758 457.588 C 922.334 459.193 921.003 455.673 916.356 457.894 C 914.406 463.115 917.37 463.295 914.436 469.182 C 918.211 476.076 938.62 486.694 947.162 496.88 L 946.562 497.624 C 940.602 493.437 931.518 482.822 926.217 483.229 C 924.123 487.307 928.796 494.125 931.65 497.03 C 937.814 503.304 936.123 513.112 943.105 517.989 L 944.283 517.45 C 944.281 513.877 944.161 512.006 943.704 508.463 C 947.761 512.226 946.898 517.755 946.672 522.795 C 948.084 524.348 947.335 523.738 948.812 524.424 C 971.088 534.779 1007.87 561.746 1020.31 583.06 C 1013.18 577.069 1007.16 569.639 1000.46 563.358 C 992.275 555.681 981.765 546.265 972.718 539.568 C 978.588 547.952 985.503 558.444 991.832 566.205 C 999.519 575.631 1030.54 602.498 1031.76 613.833 C 1026.7 609.265 1019.15 599.199 1014.35 593.64 C 980.72 554.76 926.4 507.684 873.786 544.312 C 863.265 543.141 868.964 551.205 847.43 543.956 C 841.172 538.32 835.313 533.007 833.579 524.643 z"/>
<path transform="translate(0,0)" fill="rgb(92,153,165)" d="M 1157.26 524.676 C 1207.55 517.378 1240.13 532.975 1254.15 582.881 C 1253.72 590.844 1249.84 610.662 1247.82 618.499 C 1244.84 628.151 1238.12 647.185 1229.72 652.689 L 1232.42 649.105 C 1230.04 650.687 1227.01 652.684 1224.87 654.53 C 1222.25 656.788 1221.63 659.371 1218.57 661.348 C 1228.57 638.652 1235.51 620.136 1231.93 595.07 C 1225.86 552.55 1192.48 525.546 1149.2 532.17 C 1152.31 528.856 1153.68 527.44 1157.26 524.676 z"/>
<path transform="translate(0,0)" fill="rgb(112,168,145)" d="M 1254.15 582.881 C 1256.6 592.942 1263.23 618.953 1255.48 627.437 C 1254.94 623.096 1254.69 618.424 1250.48 616.59 L 1247.82 618.499 C 1249.84 610.662 1253.72 590.844 1254.15 582.881 z"/>
<path transform="translate(0,0)" fill="rgb(176,207,107)" d="M 749.249 269.494 C 893.572 196.079 1105.81 192.456 1258.13 241.742 C 1443.4 302.121 1596.99 433.838 1684.9 607.752 C 1738.29 712.784 1764.78 829.43 1761.98 947.223 C 1760.69 979.76 1758.72 1014.08 1753.49 1046.28 C 1727.2 1203.52 1649.64 1347.66 1532.91 1456.25 C 1526.15 1462.48 1513.61 1473.42 1506.31 1478.8 L 1505.07 1477.92 C 1494.99 1484.8 1485.96 1491.23 1477.8 1501.03 C 1470.84 1509.39 1451 1496.34 1444.83 1491.98 C 1443.92 1491.33 1435.89 1476.28 1435.01 1474.29 C 1424.66 1450.76 1462.84 1448.59 1468.89 1429.33 C 1476.61 1421.9 1485.54 1414.84 1493.51 1407.21 C 1536.79 1365.8 1571.3 1324.21 1602.78 1272.87 C 1635.7 1219.86 1660.55 1162.23 1676.51 1101.9 C 1678.45 1094.45 1683.07 1079.31 1681.49 1072.72 C 1676.68 1083.88 1674.12 1096.51 1669.73 1107.2 C 1660.27 1130.48 1650.66 1154.73 1639.25 1177.04 C 1625.96 1203.03 1610.69 1225.22 1591.18 1246.79 C 1586.96 1251.45 1580.98 1267.05 1575.09 1268.85 C 1574.3 1267.01 1574.16 1264.89 1574.97 1262.98 C 1586.13 1236.93 1599.96 1212.31 1611 1186.17 C 1652.47 1086.81 1666.97 978.253 1653.03 871.486 C 1652.14 866.718 1651.34 861.909 1650.73 857.097 C 1646.76 825.752 1639.06 795.498 1630.53 765.121 C 1624.91 753.584 1620.33 734.41 1615.26 722.423 C 1601.73 690.405 1578.45 634.123 1557.33 607.449 C 1555.84 622.708 1554.18 644.184 1550.41 659.057 C 1535.65 717.318 1501 766.911 1454.93 804.86 C 1450.76 808.292 1441.46 815.9 1437.23 818.514 L 1436.84 816.624 C 1440.92 812.894 1451.29 806.027 1452.6 803.551 C 1448.24 803.412 1447.52 803.881 1443.26 805.296 L 1441.02 802.705 C 1432.05 803.521 1423.38 798.088 1415.1 797.008 C 1410.79 796.445 1370.9 790.752 1370.15 791.282 C 1359.82 798.575 1344.04 822.961 1333.29 827.853 C 1294.88 865.158 1256.69 907.991 1221.37 948.423 C 1199.91 972.995 1179.1 1001.41 1157.07 1025.37 C 1147.32 1030.22 1136.82 1045.52 1128.9 1053.42 C 1124.81 1057.49 1122.55 1069.47 1113.51 1064.91 C 1099.93 1045.13 1135.5 1020.11 1136.63 1004.97 C 1137.62 1002.4 1150.16 984.052 1152.26 980.928 C 1162.12 966.436 1171.66 951.726 1180.87 936.808 C 1199.82 906.107 1216.24 874.607 1235.41 844.728 C 1241.98 834.479 1269.13 800.952 1278.26 793.92 C 1281.45 787.83 1295.97 772.337 1301.13 765.434 C 1319.44 740.965 1336.22 713.723 1348.3 685.638 C 1352.48 675.931 1354.6 667.223 1356.85 657.749 C 1360.46 642.579 1361.43 606.482 1370.18 595.645 C 1391.21 569.586 1475.18 539.688 1505.74 535.343 C 1446.08 465.114 1353.03 398.892 1268.59 364.139 C 1130.71 307.396 978.495 304.222 837.663 351.939 C 816.279 359.184 797.759 367.895 777.063 376.474 C 772.961 372.643 749.849 390.427 743.874 390.073 L 743.178 387.662 L 740.879 387.098 C 738.958 379.681 741.175 374.454 740.621 368.817 C 739.661 359.052 732.681 350.312 736.191 340.162 C 738.921 332.27 787.581 314.426 797.016 309.657 L 795.998 308.491 L 783.13 313.512 L 782.782 312.384 C 790.382 308.444 798.795 306.729 805.072 303.69 C 822.227 295.382 838.619 290.57 857.138 285.866 C 866.965 283.37 877.37 281.35 886.62 277.286 C 890.908 275.403 894.305 278.127 898.893 275.839 C 893.506 270.575 897.874 275.353 893.296 273.236 L 894.986 270.933 C 894.238 269.576 887.903 268.577 884.08 266.469 C 880.196 259.832 886.389 262.569 887.799 249.693 C 885.544 247.237 881.795 246.637 878.28 245.825 C 873.944 244.822 871.777 236.38 869.014 231.202 C 857.428 227.815 765.351 264.837 751.3 270.397 L 749.249 269.494 z"/>
<path transform="translate(0,0)" fill="rgb(111,168,181)" d="M 1670.64 724.133 C 1668.94 717.057 1661.3 699.326 1662.63 694.612 L 1664.47 694.312 L 1666.23 695.952 C 1667.83 702.481 1671.14 711.421 1674.23 717.37 C 1675.62 726.117 1680.46 735.029 1683.48 744.635 C 1699.61 795.892 1706.67 848.567 1710.47 901.969 C 1711.29 913.555 1710.03 943.926 1711.77 951.83 C 1713.49 904.315 1709.44 859.626 1702.61 812.739 C 1702.27 810.405 1705.62 806.803 1707.12 805.237 C 1708.86 803.532 1709.35 803.694 1711.68 803.854 C 1713.31 803.967 1719.17 806.421 1720.4 807.149 C 1728.49 811.939 1734.9 805.679 1740.6 814.97 C 1741.39 816.261 1742.74 816.937 1744.06 817.564 C 1747.53 815.823 1747.96 815.582 1750.91 813.1 C 1752.8 816.828 1751.37 819.187 1749.99 823.024 C 1759.77 857.722 1759.4 892.918 1760.02 928.933 C 1760.08 932.21 1758.8 946.842 1760.86 948.2 L 1761.98 947.223 C 1760.69 979.76 1758.72 1014.08 1753.49 1046.28 C 1727.2 1203.52 1649.64 1347.66 1532.91 1456.25 C 1526.15 1462.48 1513.61 1473.42 1506.31 1478.8 L 1505.07 1477.92 C 1494.99 1484.8 1485.96 1491.23 1477.8 1501.03 C 1470.84 1509.39 1451 1496.34 1444.83 1491.98 C 1443.92 1491.33 1435.89 1476.28 1435.01 1474.29 C 1424.66 1450.76 1462.84 1448.59 1468.89 1429.33 C 1476.61 1421.9 1485.54 1414.84 1493.51 1407.21 C 1536.79 1365.8 1571.3 1324.21 1602.78 1272.87 C 1635.7 1219.86 1660.55 1162.23 1676.51 1101.9 C 1678.45 1094.45 1683.07 1079.31 1681.49 1072.72 C 1676.68 1083.88 1674.12 1096.51 1669.73 1107.2 C 1660.27 1130.48 1650.66 1154.73 1639.25 1177.04 C 1625.96 1203.03 1610.69 1225.22 1591.18 1246.79 C 1586.96 1251.45 1580.98 1267.05 1575.09 1268.85 C 1574.3 1267.01 1574.16 1264.89 1574.97 1262.98 C 1586.13 1236.93 1599.96 1212.31 1611 1186.17 C 1652.47 1086.81 1666.97 978.253 1653.03 871.486 C 1652.14 866.718 1651.34 861.909 1650.73 857.097 C 1646.76 825.752 1639.06 795.498 1630.53 765.121 C 1635.72 767.169 1638.32 789.091 1641.87 796.293 C 1644.77 791.527 1641.47 786.043 1646.11 785.069 C 1648.48 788.137 1649.54 790.193 1652.92 791.755 C 1655.56 791.903 1658.04 791.376 1659.99 789.67 C 1665.95 784.448 1679.07 788.121 1683.34 784.593 C 1688.16 770.064 1670.74 739.358 1670.64 724.133 z"/>
<path transform="translate(0,0)" fill="rgb(171,204,167)" d="M 1670.64 724.133 C 1673.1 726.691 1677.93 743.892 1679.12 748.087 C 1698.84 817.756 1705.46 888.856 1703.05 961.082 C 1702.07 990.516 1696.79 1014.54 1689.79 1042.99 C 1687.73 1051.34 1685.27 1065.54 1681.49 1072.72 C 1676.68 1083.88 1674.12 1096.51 1669.73 1107.2 C 1660.27 1130.48 1650.66 1154.73 1639.25 1177.04 C 1625.96 1203.03 1610.69 1225.22 1591.18 1246.79 C 1586.96 1251.45 1580.98 1267.05 1575.09 1268.85 C 1574.3 1267.01 1574.16 1264.89 1574.97 1262.98 C 1586.13 1236.93 1599.96 1212.31 1611 1186.17 C 1652.47 1086.81 1666.97 978.253 1653.03 871.486 C 1652.14 866.718 1651.34 861.909 1650.73 857.097 C 1646.76 825.752 1639.06 795.498 1630.53 765.121 C 1635.72 767.169 1638.32 789.091 1641.87 796.293 C 1644.77 791.527 1641.47 786.043 1646.11 785.069 C 1648.48 788.137 1649.54 790.193 1652.92 791.755 C 1655.56 791.903 1658.04 791.376 1659.99 789.67 C 1665.95 784.448 1679.07 788.121 1683.34 784.593 C 1688.16 770.064 1670.74 739.358 1670.64 724.133 z"/>
<path transform="translate(0,0)" fill="rgb(144,178,110)" d="M 1630.53 765.121 C 1635.72 767.169 1638.32 789.091 1641.87 796.293 L 1642.41 798.619 L 1645 796.375 C 1650.97 800.525 1644.93 808.989 1645.69 813.075 C 1649.59 834.266 1653.98 849.637 1653.03 871.486 C 1652.14 866.718 1651.34 861.909 1650.73 857.097 C 1646.76 825.752 1639.06 795.498 1630.53 765.121 z"/>
<path transform="translate(0,0)" fill="url(#Gradient2)" d="M 749.249 269.494 C 893.572 196.079 1105.81 192.456 1258.13 241.742 C 1443.4 302.121 1596.99 433.838 1684.9 607.752 C 1738.29 712.784 1764.78 829.43 1761.98 947.223 L 1760.86 948.2 C 1758.8 946.842 1760.08 932.21 1760.02 928.933 C 1759.4 892.918 1759.77 857.722 1749.99 823.024 C 1751.37 819.187 1752.8 816.828 1750.91 813.1 C 1747.96 815.582 1747.53 815.823 1744.06 817.564 C 1742.74 816.937 1741.39 816.261 1740.6 814.97 C 1734.9 805.679 1728.49 811.939 1720.4 807.149 C 1719.17 806.421 1713.31 803.967 1711.68 803.854 C 1709.35 803.694 1708.86 803.532 1707.12 805.237 C 1705.62 806.803 1702.27 810.405 1702.61 812.739 C 1709.44 859.626 1713.49 904.315 1711.77 951.83 C 1710.03 943.926 1711.29 913.555 1710.47 901.969 C 1706.67 848.567 1699.61 795.892 1683.48 744.635 C 1680.46 735.029 1675.62 726.117 1674.23 717.37 C 1671.6 692.337 1627.46 609.73 1613.05 586.594 C 1594.17 556.307 1564.36 515.124 1540.19 488.712 C 1465.15 406.871 1371.13 339.947 1266.31 301.801 C 1141.12 256.244 998.453 249.843 869.76 284.398 C 848.971 289.98 814.039 296.941 795.998 308.491 L 783.13 313.512 L 782.782 312.384 C 790.382 308.444 798.795 306.729 805.072 303.69 C 822.227 295.382 838.619 290.57 857.138 285.866 C 866.965 283.37 877.37 281.35 886.62 277.286 C 890.908 275.403 894.305 278.127 898.893 275.839 C 893.506 270.575 897.874 275.353 893.296 273.236 L 894.986 270.933 C 894.238 269.576 887.903 268.577 884.08 266.469 C 880.196 259.832 886.389 262.569 887.799 249.693 C 885.544 247.237 881.795 246.637 878.28 245.825 C 873.944 244.822 871.777 236.38 869.014 231.202 C 857.428 227.815 765.351 264.837 751.3 270.397 L 749.249 269.494 z"/>
<path transform="translate(0,0)" fill="rgb(171,204,167)" d="M 1278.26 793.92 C 1289.17 790.245 1314.45 747.189 1330.08 739.993 L 1331.43 741.089 C 1331.41 745.88 1327.65 752.339 1325.17 756.421 C 1325.54 764.321 1328.59 775.457 1331.7 782.817 C 1332.55 784.847 1332.12 791.179 1332.41 793.884 C 1350.43 782.912 1416.1 716.425 1429.37 700.31 L 1433.97 704.332 C 1432.27 711.061 1423.25 721.07 1419.3 727.082 C 1403.59 750.97 1383.64 771.578 1365.07 793.187 C 1355.47 804.356 1342.28 816.868 1333.29 827.853 C 1294.88 865.158 1256.69 907.991 1221.37 948.423 C 1199.91 972.995 1179.1 1001.41 1157.07 1025.37 C 1147.32 1030.22 1136.82 1045.52 1128.9 1053.42 C 1124.81 1057.49 1122.55 1069.47 1113.51 1064.91 C 1099.93 1045.13 1135.5 1020.11 1136.63 1004.97 C 1137.62 1002.4 1150.16 984.052 1152.26 980.928 C 1162.12 966.436 1171.66 951.726 1180.87 936.808 C 1199.82 906.107 1216.24 874.607 1235.41 844.728 C 1241.98 834.479 1269.13 800.952 1278.26 793.92 z"/>
<path transform="translate(0,0)" fill="url(#Gradient1)" d="M 1506.31 1478.8 C 1503.46 1483.16 1485.21 1496.99 1480.44 1500.67 C 1419.67 1547.37 1352.01 1584.37 1279.9 1610.32 C 1102.24 1673.46 906.885 1664.16 736.03 1584.44 C 562.995 1501.72 422.641 1354.88 358.691 1172.95 C 309.588 1034.84 303.843 885.014 342.222 743.54 C 347.099 725.763 359.14 685.387 367.092 668.839 C 369.35 677.96 336.838 750.957 338.345 770.988 C 339.065 780.57 338.684 800.244 345.604 807.512 C 345.854 807.773 346.157 807.979 346.433 808.212 C 347.708 807.758 348.774 807.363 350.018 806.876 C 353.794 812.823 346.898 812.254 357.005 814.704 C 362.993 820.118 374.727 831.613 374.044 840.149 C 374.763 836.438 377.574 817.965 378.636 815.812 C 380.409 833.626 373.899 861.346 373.555 880.982 C 372.535 939.116 376.905 993.451 391.704 1049.7 C 393.627 1057.01 395.355 1079.57 400.429 1084.04 C 396.623 1092.92 426.596 1172.92 432.496 1186.94 C 439.123 1202.69 451.111 1227.14 459.4 1242.53 C 531.035 1373.66 644.458 1477.07 781.628 1536.31 C 900.709 1587.07 1032.08 1601.74 1159.42 1578.48 C 1255.34 1560.08 1346.05 1520.17 1425.26 1463.41 C 1440.32 1452.62 1454.1 1439.98 1468.89 1429.33 C 1462.84 1448.59 1424.66 1450.76 1435.01 1474.29 C 1435.89 1476.28 1443.92 1491.33 1444.83 1491.98 C 1451 1496.34 1470.84 1509.39 1477.8 1501.03 C 1485.96 1491.23 1494.99 1484.8 1505.07 1477.92 L 1506.31 1478.8 z"/>
<path transform="translate(0,0)" fill="rgb(112,168,145)" d="M 749.249 269.494 L 751.3 270.397 C 765.351 264.837 857.428 227.815 869.014 231.202 C 871.777 236.38 873.944 244.822 878.28 245.825 C 881.795 246.637 885.544 247.237 887.799 249.693 C 886.389 262.569 880.196 259.832 884.08 266.469 C 887.903 268.577 894.238 269.576 894.986 270.933 L 893.296 273.236 C 897.874 275.353 893.506 270.575 898.893 275.839 C 894.305 278.127 890.908 275.403 886.62 277.286 C 877.37 281.35 866.965 283.37 857.138 285.866 C 838.619 290.57 822.227 295.382 805.072 303.69 C 798.795 306.729 790.382 308.444 782.782 312.384 L 783.13 313.512 L 795.998 308.491 L 797.016 309.657 C 787.581 314.426 738.921 332.27 736.191 340.162 C 732.681 350.312 739.661 359.052 740.621 368.817 C 741.175 374.454 738.958 379.681 740.879 387.098 L 743.178 387.662 L 743.874 390.073 C 749.849 390.427 772.961 372.643 777.063 376.474 L 776.002 377.206 C 772.785 379.376 761.572 384.626 757.11 386.979 C 745.307 393.219 733.669 399.767 722.211 406.619 C 676.849 433.662 635.268 466.593 598.551 504.552 C 592.665 510.554 575.4 527.526 572.39 534.338 L 573.025 535.76 C 574.984 536.349 576.25 536.743 578.243 537.205 C 574.576 537.164 568.619 537.435 565.387 536.279 C 557.55 532.504 538.601 528.932 530.105 529.256 C 522.979 536.484 524.69 592.079 520.18 604.17 C 513.481 613.101 505.987 626.621 500.367 636.504 C 473.793 683.232 456.915 727.635 440.944 778.432 L 440.698 780.147 C 438.654 793.748 433.405 809.684 430.552 823.335 C 401.399 962.837 423.802 1108.82 488.698 1235.25 C 492.003 1241.68 495.705 1249.17 498.529 1255.87 C 496.604 1256.06 494.449 1255.09 493.419 1253.75 C 465.454 1217.48 440.389 1172.12 421.193 1130.89 C 414.262 1116.01 407.39 1094.38 400.429 1084.04 C 395.355 1079.57 393.627 1057.01 391.704 1049.7 C 376.905 993.451 372.535 939.116 373.555 880.982 C 373.899 861.346 380.409 833.626 378.636 815.812 C 377.574 817.965 374.763 836.438 374.044 840.149 C 374.727 831.613 362.993 820.118 357.005 814.704 C 346.898 812.254 353.794 812.823 350.018 806.876 C 348.774 807.363 347.708 807.758 346.433 808.212 C 346.157 807.979 345.854 807.773 345.604 807.512 C 338.684 800.244 339.065 780.57 338.345 770.988 C 336.838 750.957 369.35 677.96 367.092 668.839 C 375.019 647.711 384.189 627.071 394.554 607.027 C 461.27 478.915 553.867 378.906 679.056 305.053 C 693.567 296.493 733.31 274.522 749.249 269.494 z"/>
<path transform="translate(0,0)" fill="rgb(85,142,88)" d="M 795.998 308.491 L 797.016 309.657 C 787.581 314.426 738.921 332.27 736.191 340.162 C 732.681 350.312 739.661 359.052 740.621 368.817 C 741.175 374.454 738.958 379.681 740.879 387.098 L 743.178 387.662 L 743.874 390.073 C 749.849 390.427 772.961 372.643 777.063 376.474 L 776.002 377.206 C 772.785 379.376 761.572 384.626 757.11 386.979 C 745.307 393.219 733.669 399.767 722.211 406.619 C 676.849 433.662 635.268 466.593 598.551 504.552 C 592.665 510.554 575.4 527.526 572.39 534.338 L 573.025 535.76 C 574.984 536.349 576.25 536.743 578.243 537.205 C 574.576 537.164 568.619 537.435 565.387 536.279 C 557.55 532.504 538.601 528.932 530.105 529.256 C 522.979 536.484 524.69 592.079 520.18 604.17 C 513.481 613.101 505.987 626.621 500.367 636.504 C 473.793 683.232 456.915 727.635 440.944 778.432 C 437.343 764.826 460.817 733.016 449.421 722.78 C 446.228 722.67 442.063 722.074 439.478 723.633 C 437.083 733.036 437.905 726.653 432.125 728.16 L 427.346 736.959 L 426.766 737.03 C 424.096 740.461 424.794 738.857 424.623 743.552 L 421.525 741.592 C 420.186 739.412 414.736 713.789 415.516 710.385 C 422.168 681.374 436.075 652.17 449.553 625.832 C 455.246 614.707 466.71 596.579 469.571 585.911 C 482.111 560.592 517.35 516.045 536.367 494.002 C 585.931 437.323 644.184 388.878 708.949 350.477 C 724.63 341.136 743.721 332.568 760.099 324.183 C 766.478 320.918 775.931 317.6 781.845 314.252 L 783.13 313.512 L 795.998 308.491 z"/>
<path transform="translate(0,0)" fill="rgb(92,153,165)" d="M 424.623 743.552 C 423.58 745.976 423.57 746.729 421.423 748.211 C 419.478 747.015 419.608 746.881 417.371 747.022 C 414.829 748.684 413.967 750.905 413.011 753.871 C 412.547 756.086 401.253 763.269 400.794 764.915 C 389.191 806.54 382.373 849.036 380.799 892.224 C 380.55 899.065 380.503 906.837 379.173 913.529 C 376.997 905.787 379.165 884.088 379.591 875.495 C 384.233 786.859 407.983 700.275 449.214 621.675 C 454.512 611.661 462.709 594.317 469.571 585.911 C 466.71 596.579 455.246 614.707 449.553 625.832 C 436.075 652.17 422.168 681.374 415.516 710.385 C 414.736 713.789 420.186 739.412 421.525 741.592 L 424.623 743.552 z"/>
</svg>